<?xml version="1.0" encoding="utf-8"?>
<!-- Generator: Adobe Illustrator 19.1.0, SVG Export Plug-In . SVG Version: 6.00 Build 0)  -->
<svg version="1.1" id="Layer_1" xmlns="http://www.w3.org/2000/svg" xmlns:xlink="http://www.w3.org/1999/xlink" x="0px" y="0px"
	 width="1400px" height="980px" viewBox="0 0 1400 980" enable-background="new 0 0 1400 980" xml:space="preserve">
<rect id="XMLID_32_" x="0" y="0" fill="#461E06" width="1400" height="980.2"/>
<g>
	<path id="XMLID_30_" fill="#8A3E07" d="M1399.4,0.1v578.4c0,0-49.1-14.7-103-28.4c-54-13.6-87.3,11.6-109.6-14.5
		c-22.3-26.1-50.4-51.9-50.4-51.9S974.1,466,962.1,469c-12,3-28.5,29.8-57,20.9c-28.5-8.9-29.8-1.3-37.9,0c-8.1,1.3-27-6.9-37.5-6.2
		c-10.5,0.7-17.5,5.7-35.5,2.2c-18-3.5-24-8.4-40.5-10.5c-16.5-2-56-9-83.9-4c-28,5-30,15.5-54.5,15.5c-24.5,0-84.9-8.2-102.7-10.1
		c-17.7-1.9-24.2-1.9-42.7-1.9s-28,1.5-48,1.5s-94.5,5.6-116.9,2s-29.4-9-26.4-28.5c3-19.5,9-67.5,9-67.5s-19.6-132.2-37.5-135.3
		c-18-3.1-80.9,64.4-68.9,83.9s28.3,31.2,34.5,60c6.1,28.7-1.9,100.3-12.2,98.9c-10.3-1.4-92.7-14.5-131.7-14.5s-71.4,0-71.4,0V0.1
		L1399.4,0.1z"/>
	<path id="XMLID_19_" fill="#461E06" d="M998.3,0.9c7.7,20.4,40.5,135.3,39,171.3c-1.5,36,35.3,116.8,31.4,164.8
		s27.3,136.3,57,146.7c29.7,10.4,33.8-17.3,70.9-8.2c37.2,9.1,47.3-24.4,38.4-73.9c-8.9-49.5-12-106.5,3-146.9s51-76.5,31.5-136.4
		c-19.5-60,0-118.1,0-118.1L998.3,0.9z"/>
	<path id="XMLID_16_" fill="#8A3E07" d="M0.6,0.1v578.4c0,0,49.1-14.7,103-28.4c54-13.6,87.3,11.6,109.6-14.5s50.4-51.9,50.4-51.9
		S425.8,466,437.8,469c12,3,28.5,29.8,57,20.9c28.5-8.9,29.8-1.3,37.9,0c8.1,1.3,27-6.9,37.5-6.2c10.5,0.7,17.5,5.7,35.5,2.2
		c18-3.5,24-8.4,40.5-10.5c16.5-2,56-9,83.9-4c28,5,30,15.5,54.5,15.5c24.5,0,84.9-8.2,102.7-10.1c17.7-1.9,24.2-1.9,42.7-1.9
		c18.5,0,28,1.5,48,1.5s94.5,5.6,116.9,2s29.4-9,26.4-28.5c-3-19.5-9-67.5-9-67.5s19.6-132.2,37.5-135.3c18-3.1,80.9,64.4,68.9,83.9
		s-28.3,31.2-34.5,60c-6.1,28.7,1.9,100.3,12.2,98.9c10.3-1.4,92.7-14.5,131.7-14.5c39,0,71.4,0,71.4,0V0.1H0.6z"/>
	<path id="XMLID_17_" fill="#EAA53C" d="M790,1.2c48,12,166.2,465.9,194.8,467.8c28.6,1.8,4.6-35.9,18-41.9c13.5-6,0,31.5,13.5,28.5
		c13.5-3-4.5-44.1,15-46.8s-1.7,85.2,22.5,75c24.2-10.3-3-60.3,16.5-75c19.5-14.7-10.5,90.1,10.5,81.2c21-8.9,27,2.3,37.5-6.2
		c10.4-8.5,9-16.2,12-28.2c3-12-2.4-60.7,6-82.5c8.4-21.7,3,10.5,12,7.5c9-3,0.8-21.5,14.1-13.5c13.3,7.9,7.8,10.5,13.3,33
		s-0.1,68.9,8,68.9c8.1,0,3.4-75.8,12.6-49.4s-20,48.9,0.5,55.9c20.5,7.1,11.5,29.6,20.5,7.1c9-22.5,1.5-52.5,9-60
		c7.5-7.5-0.1,67.6,15,61.2c15.1-6.4,25.4,20.7,44.4,6.2c19-14.5,34.9-32.8,44-26.8c9.1,5.9,18,15.8,37.5,12.4
		c19.5-3.4,32.4,0,32.4,0V0.1L790,1.2z"/>
	<path id="XMLID_13_" fill="#C08138" d="M0.6,571.9V408.7c0,0-1,1.2,6-5.8s7-16,13-9s9,22,15,25c6,3,26-5,38-1c12,4,9,9,15,14
		s19.8-6.2,17.5-1.3s0.4,4.9,6.4,19.3c6,14.3,6,8,17,8s74.5,1.1,84.7-17s13.8-34.9,32.2-29.4c18.4,5.4,48.2-1.5,60.1-9.6
		s31.9,1.8,46.8-10.5c15-12.3,5.1-11.2,20-6.5c14.9,4.8,13-9,26,7c13,16,22.2,14.5,27.6,16.8c5.4,2.2,3.4-12.6,11.4,2.8
		c8,15.4-3,3.4,17,5.4c20,2,18-11,28,1c10,12,13,18.1,24,23s28,35.5,32,42.7c4,7.2,1-1.2,20,0c19,1.2,53.8-9.1,54.9-6.9
		c1.1,2.2,22-17.8,26-17.8c4,0,171.1,14.9,199.8,16.5c28.7,1.7,16-0.5,51-5.5c35-5,14-2.9,74.9-0.9c55.8,1.8,158.3,7,196.8,6.7
		c3.6,0,6.6-0.1,9-0.2c28-1.5,122.9,5.5,133.9,0c11-5.5,6-2.2,25-12.4c19-10.1,24-31.1,25-22.1c1,9-3,18.3,0,22.1
		c3,3.8,9-4.1,16-12.1c7-8,12,6,12-2c0-8-5-24,6-29c11-5-16-14-16-3c0,11,5,8,0,11c-5,3-10-7-10-7s-6,19.4-13,16.2s-1-20.2-5-20.2
		c-4,0,6,16-2,17c-8,1-15-45-21-42c-6,3-3,65-11,63c-8-2-5-42.4-9-46.2c-4-3.8-1,37.3-9,32.2c-8-5,1-41-3-42c-4-1-6,7.2-10,12.6
		c-4,5.4-5-2.8-5-2.8s0,10.2-4,10.2c-4,0-17-38.7-23-37.3c-6,1.3-15,14.3-22,8.3c-7-6-18.5-8.7-20.2-8.4c-1.7,0.4,22.2,1.4-1.7,0.4
		c-24-1-9-8-28-7c-19,1-9-24-41-25c-32-1-18-22-24-23c-6-1,3,47-13,39c-16-8-14-54.9-17-38.9c-3,15.9-23,77.9-25,95.9
		c-2,18-14,29.4-16,14.2s2-49.2,2-49.2s-4.2-54.3-10-55s4,65-7,65c-11,0-7-62-16-63s-2,55-12,59s5-58-3-59s-11,103-16,97
		s-2.4-32-2.4-32s7.5,57.4-4.6,63.1c-12.1,5.7,0.4-55.9-12-51.6c-12.4,4.4,2,38.2-15,36.3c-17-1.9-9-53.9-15-54.9
		c-6-1-25-72.5-46-69.2c-21,3.2-26,133.5-36,124s-9.3-135.8-16-135.8c-6.7,0,5,153.2-4,151.1c-9-2.1,3.3-100.8-8-93.1
		c-11.3,7.7-8,36.5-12,38.8c-4,2.2-12.3-27.1-18.7-40.4C781.9,355,736,324,735,352c-1,28-2.3,57.3-11,59.6c-8.7,2.3-13-0.6-24,5.4
		c-11,6-27.8-66.3-29.9-69.5s-53.2-18.6-68-4.5c-14.8,14.1,5,64.5-4,65.7s-2-44-10.5-43.9c-8.5,0.1-16.5,14.1-23.5,31.1
		c-7,17-10.4-13.4-20.1-24c-9.7-10.6-0.9,1-17.9-3c-17-4-5.4-19.6-23.5-17.6c-18.1,2-46.7-50.1-46-19.7s10.6,68.4,3.6,68.4
		s-4.3-60.1-13-65c-8.7-4.8-14,13.7-19.5,27.9c-5.5,14.1-16-8.1-28.2-6.5S375.7,374.9,354,368c-21.7-7-149.8-107-168.6-100.8
		s-28,60.5-33.5,66.1c-5.5,5.7-5.5-13.3-16.5-21.3c-11-8,12,90,1,91c-11,1-13-66-22-67s8.6,61.2-8,64s1-75-10-76c-11-1-12,75-18,75
		c-6,0-18-25.8-22-19c-4,6.8,1,18-10,15c-11-3,0-34-10-41s-6,32-17,26s-19-77-19-77V0.1h1398.9v501.6c0,0-63.9,6.2-72.9,5.2
		s-7-7.4-19-5.2c-12,2.2-4-11.8-22-11.8s-34.2,9.8-52,7c-17.7-2.8-53-9.4-58-13.2c-5-3.8-26,18.1-35,17.1c-9-0.9-33-4.9-41-4.9
		s-6,15-20,12c-14-3-16-14.4-26-6.2s-92.4-8.7-92.7-7.9c-0.3,0.8-7.2-3.9-33.2-3.9c-26,0-27-3.8-41,0c-13.9,3.8-33-2-44,0
		c-11,2-42,5.4-56,5.7c-14,0.3-19,12.3-33.9,12.3s-45-12-70-12s-74.9-6-104.9-6s-163.9,9-206.8,9s-179.9,30.6-228.8,35.3
		C93.5,538.9,0.6,571.9,0.6,571.9z"/>
	<path id="XMLID_11_" fill="#AF5F0D" d="M1399.4,273c-8.3,0.7-15,12.7-15,28.7c0,16-0.7,28.7-3.3,34.7c-2.7,6-2.7,23.3-6,22.7
		c-3.3-0.7-2.7-55.3-8.7-52c-6,3.3-20,16.7-25.3,14.7c-5.3-2-20-67.3-30-64c-10,3.3-21.4,13.2-27.3,9.5c-5.9-3.7-14-6.4-25.3-9.6
		c-11.3-3.2-21.1-11.5-25-15.2s-10.3,9.3-17.6,16c-7.3,6.7-5.3,14-12,14.7c-6.7,0.7-20.7-13.3-24-13.3c-3.3,0-78.8,22.8-87.4,23.7
		c-8.5,0.9-12.5,64.2-17.2,64.2c-4.7,0-2.7-10.7-6.7-10.7c-4,0-1.3,38.7-8.7,38.7c-7.3,0-6.7-17.3-7.3-21.3c-0.7-4-4-32-8-35.3
		c-4-3.3-6.7-54-11-52s-3.9,19-14.4,17.5s-4.5,6.5-8.5,7.1c-4,0.7-3.3,23.3-7.3,24c-4,0.7-4-70.6-8.7-77.3c-4.7-6.7-28.6-20.7-30,0
		c-1.3,20.7-9.3,54-15.3,49.3s-17.7-23.4-30.6-17.3c-12.9,6-13.3,14.7-31.3,14c-18-0.7-35.2,17.3-42.3,27.7c-7,10.3,7.7,25,0,26.3
		s-10.4,10-10.4,24.7c0,14.7,3.3,42.7-2.7,42.7c-6,0-1.3-94-8-93.6c-6.7,0.3,2,38.3-6,35.7c-8-2.7-6.7-12-10.7-8.7
		c-4,3.3-5.3,32,0,38.7c5.3,6.7,15.3-2,16,10c0.7,12,6,19.8,8.7,23.9c2.7,4.1,4.7,11.4,4.7,26.7s-3.3,32-3.3,32s2.6,8.2-7.3,8.7
		s-7.3,0-14.7,0c-7.3,0-17.3-84.6-23.3-110.6c-6-26-4.7-42.7-4-48.6s-8.7-23.3-16-23.3c-7.3,0-26-15.7-48.6-2
		C697,308,717.5,330,694.3,335s-30.6,2.4-25.6,24.2c5,21.8,3.6,56.5-2.7,56.8c-6.3,0.3-11,2.2-17-4.4c-6-6.6-6.7-17.9-11-19.6
		c-4.3-1.7-14.7-28.3-13.9-38.6s-5.1,4.3-13.1,5.7c-8,1.3-13.3-6-14,3.3s-9.3,14.7-9.3,14.7s0.3-51.3-7.5-52s-9.8,50.6-16.5,48
		s1.4-16.7-4.7-19.6s-1,9.7-8,13c-7,3.3-11-40.7-19.6-40.7c-8.6,0-2.4,30.7-7.1,30.7s-2-13.3-4-13.3s6,14-0.7,13.3
		c-6.7-0.7-1.8-28.7-8.9-29.7c-7.1-1-5.8,32.4-13.8,34.4c-8,2-6-20-8-20s0,14.7-4.7,12.3c-4.7-2.3,13.5-74.1-17.3-78.3
		s-83.3-22.7-91.9,1c-8.7,23.7-14,67.6-18.7,74.3s-1.3,14.7-3.3,24s2.7,9.3,5.3,16.7c2.7,7.3,6,3.3,6,14.7s-4,18.7-4,24.7
		s7.3-1.9,4,10.7c-3.3,12.6-6,15.3-4,20s15.3,10,14.7,14.7s12-4.2,16,3.5c4,7.8,10-8.2,10,10.8c0,19,4.7,27.7,6,30.3
		c1.3,2.7,16.7,4.7,20,10c3.3,5.3,6.7,12.7,4.7,16c-2,3.3,1.3,0-12,3.3c-13.3,3.3-16-9.3-22.6-11.3s-15.3,2.6-27.3-4
		c-12-6.6-14-20-25.3-22.6c-11.3-2.7-91.3-10.7-104.6-10.7s-18,12-33.3,5.3c-15.3-6.7-15.3,7.3-24,0s-8.7-16.7-17.3-22
		c-8.7-5.3-2.7-4.7-22-12c-19.3-7.3-13.3,3.3-26-8c-12.7-11.3-20.7-14-14.7-28.7c6-14.7,11.3-17.3,15.3-12.7c4,4.7-0.7,3.3,10.7,7.3
		c11.3,4,6.7-3.3,15.3,6s20,9.3,14.7,1.3c-5.3-8-11.3-2-10.7-16c0.7-14-6-2.7-6.7-23.3c-0.7-20.7,4.7-16-0.7-26.7
		c-5.3-10.7-12.7-7.3-4.7-17.3c8-10,20-4,14.7-28c-5.3-24-7.3-39.3-7.3-39.3s5.8-35.7,2-46.6c-3.8-10.9-11.3,6-20,2.7
		c-8.7-3.3-4.1,3.3-24.7,5.3c-20.6,2-34.6-16-47.3-2.7c-12.7,13.3-20.7,32.7-32,32.7S0.6,303,0.6,303V0.1h1398.9V273z"/>
	<path id="XMLID_9_" fill="#9E5411" d="M1399.4,242.6c-8,13.6-3,20.4-13,20.4s-17-13.6-33-10.2c-16,3.4-19,12.1-45,10.2
		s-37-11.6-62-20.4s-25-34.9-43-20.4c-18,14.5-17,45.6-25,45.6s-8,52.4-14,52.4c-6,0-11-42.7-14-42.7s1,32-5,33.9
		c-6,1.9-15-30.1-20-31s-13,29.1-16,29.1s-19-44.1-22-40.5c-3,3.6,5,33.7,0,33.7s-14-28.1-14-28.1s-4-38.8-11-38.8
		c-7,0-2,67.9-8,66.9c-6-1-2-24.7-9-33.7c-7-9-10-19.7-12-10c-2,9.7-8,76.6-11,77.6c-3,1,0-62.1-5-64s-10-31-14-32s-6,15.5-11,15.5
		s-7-19.4-11-17.5c-4,1.9-4,168.8-9,168.8s-4-22.3-7-19.4c-3,2.9,1,8.9-7,11.2c-8,2.4-11-69.4-11-69.4s0,101.9-5,98
		c-5-3.9-3.4-139.7-10.2-139.7c-6.8,0-3.4,46.2-12.6,51.2s3.8,137.9-6.2,136c-10-1.9-10-103.8-18-103.8c-8,0-3,81.5-6,84.4
		c-3,2.9-7,28.1-12,30.1s-13-37.8-18-44.6s-9-147.4-20-154.2c-11-6.8-24-21.3-30-11.6s-22,71.8-17,102.8s6,57.2,10,64
		c4,6.8,14,17.5,14,27.2s-7,11.6-19,11.6c-12,0-13-1-25,0c-12,1-36-2.9-36-5.8s5-22.3,0-28.1s12,2.9,0-13.6c-12-16.5-18-5.8-18-23.3
		s20-128.6,6-127.4c-14,1.2-23,178.8-32,179.8s-17,0-17-13.6s-11-9.7-10-45.6s1-47.5,6-79.5s9-61.1,5.5-66
		c-3.5-4.8-2.6,45.6-11.6,44.6s-12.9-5.8-16.9,16.5c-4,22.3-8,60.1-11,61.1c-3,1-13.1-86.3-13.1-86.3s-5.9,19.2-12.9,22.2
		s7.3-34.3-5.9-31.9c-13.1,2.4-14.1,9.7-15.1,18.4c-1,8.7-5,2.9-9,5.3c-4,2.4,0.5,13.1-4,21.3s-1.5,17.5-6.5,18.9
		c-5,1.5-6-39.3-11-37.8c-5,1.5-3,14.1-6.5,21.8s2.5,14.5-2.5,15c-5,0.5-6-10.2-7.5-10.7c-1.5-0.5,3,40.3-4.5,36.4
		c-7.5-3.9-8.1-92.8-12.5-92.6c-4.4,0.1-2.5,39.8-5.5,40.3c-3,0.5-1-29.6-10-32c-9-2.4-18.5-4.4-18.5,4.8s-9.5,0.5-10,5.3
		c-0.5,4.8,1,2.4-2.5,3.9c-3.5,1.5-1,5.8-7.5,5.8c-6.5,0-7.5-15-11.5-11.2c-4,3.9-9.5,70.8-15.5,70.8c-6,0-8-71.3-11-70.3
		c-3,1,5,63.5-4.5,59.2s-3.5-76.3-11.2-76c-7.7,0.3-5.7,54.1-11.7,54.6c-6,0.5-5-58.7-13.5-64.5c-8.5-5.8-33-23.3-41-21.3
		c-8,1.9,10,35.9-10.5,37.3c-20.5,1.5-26.5-51.9-33-51.4c-6.5,0.5-0.5,276.4-12.5,281.3c-12,4.8-34-4.8-34-20.4s4-260-12.5-269.2
		s-12.5,77.1-24.5,75.2s-8-78.5-18-84.8c-10-6.4-32,8.2-31,28.6s3.9,45.6,0,56.3s-12-56.3-19-67.9c-7-11.6-20-19.4-21.5-3.4
		s-1.5,38.3-18.5,38.3s-19,18.4-18,37.8c1,19.4,0.6,31-10.2,27.1S84.5,229,78.5,223.2c-6-5.8-39.3-24.5-40-6.8
		c-0.6,17.7-38,7.8-38,7.8V0.1h1398.9V242.6z"/>
	<path id="XMLID_8_" fill="#A66533" d="M0.6,220.6c0,0,3,73.5,9,71.5c6-2,9-12,9-12s-4,58,6,54.5c10-3.5,12-36.5,18.5-40.5
		s-6,65,0,74s5,4.5,8,14.5c3,10,8.5,18,14,22.5c5.5,4.5,2-4.5,11,0c9,4.5,8,8,12.5,6c4.5-2-1-120,4-133.5c5-13.5,15-44,17.5-52.5
		c2.5-8.5-6.5-23.5,0-23.5c6.5,0,1.5,26.5,10,31c8.5,4.5,6-19.5,9.5-19.5s-0.5,25.5,7.5,25.5c8,0,3-13,5-14c2-1,13.5-74.5,26.5-71
		c13,3.5,11,58,21,67c10,9,6,17,15,26c9,9,9.5,43.5,16.5,52.5c7,9,16.5,23.5,19,13c2.5-10.5,6.5-73.5,9.5-73c3,0.5,10-87,19-92
		c9-5,24.5,18.5,30,35.5s1.5,25.5,8,34c6.5,8.5,43.5,29.5,51.5,37c8,7.5-4.5,36,0,50.5c4.5,14.5,7,24.5,7,40.5
		c0,16-1.5,36.5,7.5,40.5c9,4,10-9.5,11.5-6c1.5,3.5,5.5,20.5,8,20.5s3-80,3-80s8,68.5,11,68c3-0.5,5.5-91,11.5-93.5
		c6-2.5,1.5-45,7-46.5c5.5-1.5,4,31.5,7.5,34c3.5,2.5,8-35,15.5-33.5s15,38,21.5,38.5c6.5,0.5,8.5-7.5,10.5-1.5c2,6,9.5,12,14,27
		c4.5,15,6.5,27.5,12.5,25.5c6-2,10.5-42.5,15-42.5c4.5,0,1.5-43.5,6.5-42.5c5,1,13.5,63,19,59.5c5.5-3.5,6-35.1,11-33
		c5,2.1,5,15,8.5,16s5-16,10-13c5,3,1,20,4.5,21.5c3.5,1.5,6.6-30.7,9.4-27.4s3.1,28.9,7.1,29.4s1,14,6,14c5,0,2.5-49,6-49
		s1,93.5,11,93.5s3-75,6.5-75s3,3,7.5,1.5c4.5-1.5,6.5-25,10-24.5s5.5,28.5,8.5,28.5c3,0,19.5-28.5,25.5-28.5s3,4,8,5
		c5,1,6,36.5,11.5,37c5.5,0.5,7.5-20.5,11.5-20c4,0.5,3.5,24.5,7.5,24c4-0.5,26-76,34.5-73.5s11.5,49,21,48.5c9.5-0.5,4-20,18.5-18
		c14.5,2,16.5,11,20,15c3.5,4,3.5,14,10.5,14c7,0,9,13,21,14s15.5-99,25.5-96.5s4.5,88.5,6,99.5s-1.1,22.5,0.2,39.5
		c1.3,17-2.2,47.5,0.3,49c2.5,1.5,7.5,8.1,11.5,8.1c4-0.1,18.5-24.1,17.5-33.6c-1-9.5,0.1-12,0-23s-3-17.5-3-28.5
		s-3.5-27.5,0.5-35.5c4-8,6.5-17.5,8-18s6,20,5,28.5s0,30,2.5,39s7.5,12.5,10,13s0-8,3-15.5c3-7.5,5-19.5,4.5-29.5
		c-0.5-10,0.1-27,0.1-27s-3.1-68,3.9-68.5c7-0.5,16.5-16,27.5-14c11,2,30,4,33,21.5c3,17.5,18-5.5,25-4.5c7,1,0,8,13.5,13.5
		c13.5,5.5,21-6.5,26-6.5s31-26.5,37.5-24.5s0.5,11,10,11.5c9.5,0.5,20.5-25,24-26c3.5-1,10.5-10.5,13-2.5c2.5,8,8,20.5,11,17
		s7.4-23.5,9.5-23.5s18.5-3,28,3c9.5,6,46,6.5,58,12c12,5.5,36,18,47,11c11-7-5.1-18.7,12-11c17.1,7.7,26.5,8,38.5,8.5
		s13-6.5,20.5-3.3s4,23.2,9,22.7s3-16,7-18.5c4-2.5,13-4.3,13-4.3V0.1H0.6V220.6z"/>
	<path id="XMLID_7_" fill="#934F22" d="M0.6,170.1c4.7,9,2.7,14.5,7,17.5S27.1,259,31.8,260s6.6-33,10.9-33s14-56.5,17.6-57
		c3.5-0.5,6.6-43.5,13.7-42.5c7,1,128.4-28.5,138.1-3.5s5.5,38.5,10.5,40.5c5.1,2,3.9-35,10.1-35s32.4,43,33.9,73.5
		c1.6,30.5,8.2-22,8.2-32.5c0-10.5,33.6-17,34.3,9s13.3,71.5,17.9,71c4.7-0.5,1.2-53,5.9-55.2c4.7-2.2,9.8,57.7,16.8,58.2
		c7,0.5,7-59.5,17.2-62s61.3,16.7,70.6,20c9.3,3.3,46.4-18.5,58.9-16.3c12.5,2.3,40.2,11.3,47.2,11.8c7,0.5,7.4,7,20.3,14.5
		c12.9,7.5,14.8,13,17.2,32s12.5,28,14,28s2.7-8.5,5.1-7.5s5.5,6,8.6,7.5s7-8,8.2-8c1.2,0,56.6-49,67.9-69s29.3,18.5,30.8,18.5
		s5.9-0.5,7.4,14c1.6,14.5,4.3,202.9,9,203.9s5.5-24,10.5-24.5s11.7-14.5,13.3-15.5c1.6-1,5.9,16.5,5.9,16.5s3.1-165.9,6.6-166.4
		s0.4,13,3.5,14.5c3.1,1.5,17.2-68,21.1-63.5c3.9,4.5,2.7,9,7,9s7-21.5,11.3-19s8.6,43.5,14,43c5.5-0.5,5.5-20,10.5-17.5
		c5.1,2.5,4.7,13.5,7.4,13.5s10.9-32,16-31c5.1,1,1.6-39,6.2-35.5c4.7,3.5,7.8,29,13.3,28.5c5.5-0.5,5.5-17.5,11.3-15.5
		c5.9,2,12.5,25,16,23.5c3.5-1.5,1.6-6,3.5-5.8c2,0.3,0.4,7.8,4.7,7.8s13.3-21.5,23-21.5s34.7,14.5,48.8,17.5
		c14,3,26.5,2.5,34.7-3.8c8.2-6.2,28.5,9.3,37.1,9.3c8.6,0,7-9,10.9-2s6.6,19.5,10.9,19c4.3-0.5,16.8-71,25.4-73.5s9.4,44,14.8,44
		s10.5-46,23-49.5c12.5-3.5,23-13,23.4,13.5s0,58,4.7,58c4.7,0,13.3-74,20.7-73.5c7.4,0.5,41.4,7,44.5,11.5s4.7-3,6.6-2.5
		s1.2,8.5,5.9,9.5c4.7,1,2,7.5,3.9,7c2-0.5,2.7-4,2.7-4s0,4,3.1,4.5c3.1,0.5,2.7-10.5,4.7-10.5s10.9,3,17.6,6.5s10.5,4.5,15.6,5.5
		s0.8,9,4.3,9.5s3.9-6,7-4.5c3.1,1.5,2.7,4.5,7,6c4.3,1.5,6.2,23.5,8.2,24.5c2,1,2.3-14.5,3.9-14.5s2,17.5,4.3,17.5
		c2.3,0,2.3-18,4.3-18s0.8,8,2.7,10s0-16.5,2.3-17s0.4,8.5,2.7,8.5c2.3,0,4.3-11,5.9-11.5s1.2,9,4.3,9.5c3.1,0.5,2.3-8.5,3.5-9
		c1.2-0.5,1.6,5.5,3.1,5.5s0-9.5,3.1-8.5c3.1,1,0,19.5,1.6,19.2s6.6-10.2,6.6-10.2s-2.3,25,0,25s4.3-19.5,7-21
		c2.7-1.5,1.6,14,3.9,14s0.8-14,4.7-15s12.6-8.5,12.6-8.5V0.1H0.6V170.1z"/>
	<path id="XMLID_6_" fill="#803D0F" d="M0.6,71.1c7,13,26,98,35,102c9,4,24-65,38-62c14,3,12,15,21,26c9,11,9,20,18,18
		s10-30.8,16-32.9s-3,10.9,5,13.9s3-11.8,9-13.9s1,19.9,10,19.9s7-55,22-53c15,2,0,54,18,56s19-61.7,25-47.4s-1,48.4,15,46.4
		c16-2,14-41.7,36-46.4s34,42.4,40,42.4c6,0,3,19,16,18c13-1,15-43,26-47c11-4,10,162.9,25,164.9c15,2,10-112,24-115s-2,68,7,70
		c9,2,12-28,25-26s15,34,25,30c10-4,6-33,19-32c13,1,42,35,47,35s2-11,9-12c7-1,21,12,24,12c3,0,8-11,12-14c4-3,20-51,28-50.5
		c8,0.5,0,16.5,10,16.5c10,0,21-30,39-16.5c18,13.5,119.9-33.5,129.9-20.5c10,13,45,149.9,49,149.9c4,0,1,9,8,9c7,0,6-14,17-12
		s11-65,19-62c8,3,13,9,22,7c9-2,9-29,16-28c7,1,15-4,23-6c8-2,24-120,38-119s9,108,18,109s33-98.7,47-103.3
		c14-4.6,62.9,1.4,66.9,7.4c4,6,8,10,18,6c10-4,1-6,14,0c13,6,3,0,25,0s15,17,31,17s9-8,31-8c22,0,20,18,39,18c19,0,19,1,25-6
		c6-7,20-9.7,36-14c16-4.3,42-2,54-1c12,1,29,2,29,2V0.1H0.6V71.1z"/>
	<path id="XMLID_1_" fill="#502304" d="M0.6,44.1c30-10,92.9,2,124.9,0c32-2,64.9-4,83.9,19s67.9,22,73.9,36c6,14,41,9,74.9,19
		s27,9,45,0c18-9,14,15.8,40,12.9s10-29.9,63.9-19.9s60,22.6,92.9,20.3c33-2.3,64.9-5.3,70.9,24.7s6,36,17,30c11-6,0-22,12-20
		c12,2,10,20.2,21,22.1c11,1.9,11,15.1,20,0c9-15.1,9-55.1,27-58.1c18-3,24-18,28-19c4-1,11,49,22,51c11,2,5-64,17-63
		c12,1,0,9,10,12c10,3,11-61,45-55.5c34,5.5,91.9,3.5,142.9,18.5c51,15,68.9,8,82.9,12c14,4,0,5,20,14s19,28,29,28s6-11,27-17
		c21-6,25-8,35-12c10-4,68.9-30,89.9-22s16,83,26,83s6.1-98.9,14.5-97.4c8.4,1.5,1.5,28.5,9.4,28.5s2-61,33-62v-29H0.6V44.1z"/>
	<path id="XMLID_5_" fill="#441C00" d="M0.6,0.1c49,7,63.9,11,65.9,25c2,14,8,50,16,50s8-40,35-46s97.9,20,146.9,8.5
		s127.9-23.5,160.9,0s101.9,8.5,110.9,22.5s13,30,19,30s6-28,13-29c7-1,23-35,52-48s71.9-4,72.9,18s6,31,13,29c7-2-3-40,13-42
		s27-18,167.9-18s169.9,63,184.9,63s7-22,31-18c24,4,113.9-20,123.9,0s9,34,22,35c13,1,16-29,25-23s-5,54,7,54s2-43,11-41
		c9,2,9,35,26,33c17-2,3-53,15-55c12-2,8,21,18,21c10,0,9-31,20-31c11,0,10,50,18,50c8,0,11-88,11-88H0.6z"/>
	<path id="XMLID_15_" fill="#9E5411" d="M1175.6,489.9c0,0,34,3,46,5c12,2,13,11,12,2c-1-9,3.6-36,0.3-51c-3.3-15-7.3-8-7.3,0
		s-5-8.6-8-8.8s-2,24.1-7,26c-5,1.8-0.5-17.1-6.2-17.1s-1.7,12.3-4.7,17.1c-3,4.8-9-18.1-13-14.1c-4,4-4,4.1-4,20
		C1183.6,484.9,1175.6,478.9,1175.6,489.9z"/>
	<path id="XMLID_31_" fill="#F9D7AA" d="M401.6,0.9c-7.7,20.4-40.5,135.3-39,171.3S327.3,289,331.2,337c3.9,48-27.3,136.3-57,146.7
		c-29.7,10.4-33.8-17.3-70.9-8.2c-37.2,9.1-47.3-24.4-38.4-73.9c8.9-49.5,12-106.5-3-146.9s-51-76.5-31.5-136.4s0-118.1,0-118.1
		L401.6,0.9z"/>
	<path id="XMLID_29_" fill="#D6965C" d="M609.9,1.2c-48,12-166.2,465.9-194.8,467.8c-28.6,1.8-4.6-35.9-18-41.9s0,31.5-13.5,28.5
		c-13.5-3,4.5-44.1-15-46.8s1.7,85.2-22.5,75c-24.2-10.3,3-60.3-16.5-75c-19.5-14.7,10.5,90.1-10.5,81.2c-21-8.9-27,2.3-37.5-6.2
		c-10.4-8.5-9-16.2-12-28.2c-3-12,2.4-60.7-6-82.5c-8.4-21.7-3,10.5-12,7.5c-9-3-0.8-21.5-14.1-13.5c-13.3,7.9-7.8,10.5-13.3,33
		c-5.6,22.5,0.1,68.9-8,68.9c-8.1,0-3.4-75.8-12.6-49.4c-9.2,26.4,20,48.9-0.5,55.9s-11.5,29.6-20.5,7.1c-9-22.5-1.5-52.5-9-60
		c-7.5-7.5,0.1,67.6-15,61.2c-15.1-6.4-25.4,20.7-44.4,6.2c-19-14.5-34.9-32.8-44-26.8s-18,15.8-37.5,12.4c-19.5-3.4-32.4,0-32.4,0
		V0.1L609.9,1.2z"/>
	<path id="XMLID_28_" fill="#C08138" d="M1399.4,571.9V408.7c0,0,1,1.2-6-5.8c-7-7-7-16-13-9c-6,7-9,22-15,25c-6,3-26-5-38-1
		c-12,4-9,9-15,14c-6,5-19.8-6.2-17.5-1.3s-0.4,4.9-6.4,19.3c-6,14.3-6,8-17,8s-74.5,1.1-84.7-17s-13.8-34.9-32.2-29.4
		c-18.4,5.4-48.2-1.5-60.1-9.6c-11.9-8-31.9,1.8-46.8-10.5c-15-12.3-5.1-11.2-20-6.5c-14.9,4.8-13-9-26,7
		c-13,16-22.2,14.5-27.6,16.8c-5.4,2.2-3.4-12.6-11.4,2.8c-8,15.4,3,3.4-17,5.4c-20,2-18-11-28,1c-10,12-13,18.1-24,23
		s-28,35.5-32,42.7c-4,7.2-1-1.2-20,0c-19,1.2-53.8-9.1-54.9-6.9c-1.1,2.2-22-17.8-26-17.8s-171.1,14.9-199.8,16.5
		c-28.7,1.7-16-0.5-51-5.5c-35-5-14-2.9-74.9-0.9c-55.8,1.8-158.3,7-196.8,6.7c-3.6,0-6.6-0.1-9-0.2c-28-1.5-122.9,5.5-133.9,0
		s-6-2.2-25-12.4c-19-10.1-24-31.1-25-22.1c-1,9,3,18.3,0,22.1c-3,3.8-9-4.1-16-12.1c-7-8-12,6-12-2c0-8,5-24-6-29s16-14,16-3
		c0,11-5,8,0,11c5,3,10-7,10-7s6,19.4,13,16.2s1-20.2,5-20.2s-6,16,2,17s15-45,21-42c6,3,3,65,11,63c8-2,5-42.4,9-46.2
		c4-3.8,1,37.3,9,32.2s-1-41,3-42s6,7.2,10,12.6c4,5.4,5-2.8,5-2.8s0,10.2,4,10.2c4,0,17-38.7,23-37.3c6,1.3,15,14.3,22,8.3
		c7-6,18.5-8.7,20.2-8.4c1.7,0.4-22.2,1.4,1.7,0.4s9-8,28-7s9-24,41-25c32-1,18-22,24-23c6-1-3,47,13,39c16-8,14-54.9,17-38.9
		c3,15.9,23,77.9,25,95.9c2,18,14,29.4,16,14.2c2-15.2-2-49.2-2-49.2s4.2-54.3,10-55s-4,65,7,65c11,0,7-62,16-63c9-1,2,55,12,59
		s-5-58,3-59c8-1,11,103,16,97s2.4-32,2.4-32s-7.5,57.4,4.6,63.1c12.1,5.7-0.4-55.9,12-51.6c12.4,4.4-2,38.2,15,36.3
		c17-1.9,9-53.9,15-54.9c6-1,25-72.5,46-69.2c21,3.2,26,133.5,36,124s9.3-135.8,16-135.8c6.7,0-5,153.2,4,151.1
		c9-2.1-3.3-100.8,8-93.1c11.3,7.7,8,36.5,12,38.8c4,2.2,12.3-27.1,18.7-40.4C618,355,664,324,665,352c1,28,2.3,57.3,11,59.6
		c8.7,2.3,13-0.6,24,5.4c11,6,27.8-66.3,29.9-69.5s53.2-18.6,68-4.5c14.8,14.1-5,64.5,4,65.7s2-44,10.5-43.9
		c8.5,0.1,16.5,14.1,23.5,31.1c7,17,10.4-13.4,20.1-24s0.9,1,17.9-3c17-4,5.4-19.6,23.5-17.6c18.1,2,46.7-50.1,46-19.7
		s-10.6,68.4-3.6,68.4c7,0,4.3-60.1,13-65c8.7-4.8,14,13.7,19.5,27.9c5.5,14.1,16-8.1,28.2-6.5c12.2,1.6,23.8,18.5,45.5,11.6
		c21.7-7,149.8-107,168.6-100.8c18.8,6.2,28,60.5,33.5,66.1c5.5,5.7,5.5-13.3,16.5-21.3c11-8-12,90-1,91c11,1,13-66,22-67
		c9-1-8.6,61.2,8,64c16.6,2.8-1-75,10-76c11-1,12,75,18,75c6,0,18-25.8,22-19c4,6.8-1,18,10,15c11-3,0-34,10-41s6,32,17,26
		c11-6,19-77,19-77V0.1L0.5,0.1v501.6c0,0,63.9,6.2,72.9,5.2s7-7.4,19-5.2s4-11.8,22-11.8s34.2,9.8,52,7c17.7-2.8,53-9.4,58-13.2
		c5-3.8,26,18.1,35,17.1c9-0.9,33-4.9,41-4.9c8,0,6,15,20,12c14-3,16-14.4,26-6.2s92.4-8.7,92.7-7.9c0.3,0.8,7.2-3.9,33.2-3.9
		s27-3.8,41,0c13.9,3.8,33-2,44,0c11,2,42,5.4,56,5.7c14,0.3,19,12.3,33.9,12.3s45-12,70-12c24.9,0,74.9-6,104.9-6s163.9,9,206.8,9
		c43,0,179.9,30.6,228.8,35.3C1306.5,538.9,1399.4,571.9,1399.4,571.9z"/>
	<path id="XMLID_27_" fill="#AF5F0D" d="M0.5,273c8.3,0.7,15,12.7,15,28.7c0,16,0.7,28.7,3.3,34.7s2.7,23.3,6,22.7
		c3.3-0.7,2.7-55.3,8.7-52s20,16.7,25.3,14.7c5.3-2,20-67.3,30-64c10,3.3,21.4,13.2,27.3,9.5c5.9-3.7,14-6.4,25.3-9.6
		c11.3-3.2,21.1-11.5,25-15.2s10.3,9.3,17.6,16c7.3,6.7,5.3,14,12,14.7c6.7,0.7,20.7-13.3,24-13.3s78.8,22.8,87.4,23.7
		c8.5,0.9,12.5,64.2,17.2,64.2s2.7-10.7,6.7-10.7c4,0,1.3,38.7,8.7,38.7s6.7-17.3,7.3-21.3c0.7-4,4-32,8-35.3c4-3.3,6.7-54,11-52
		s3.9,19,14.4,17.5s4.5,6.5,8.5,7.1c4,0.7,3.3,23.3,7.3,24c4,0.7,4-70.6,8.7-77.3c4.7-6.7,28.6-20.7,30,0c1.3,20.7,9.3,54,15.3,49.3
		c6-4.7,17.7-23.4,30.6-17.3c12.9,6,13.3,14.7,31.3,14c18-0.7,35.2,17.3,42.3,27.7c7,10.3-7.7,25,0,26.3c7.7,1.3,10.4,10,10.4,24.7
		c0,14.7-3.3,42.7,2.7,42.7s1.3-94,8-93.6c6.7,0.3-2,38.3,6,35.7c8-2.7,6.7-12,10.7-8.7c4,3.3,5.3,32,0,38.7s-15.3-2-16,10
		c-0.7,12-6,19.8-8.7,23.9c-2.7,4.1-4.7,11.4-4.7,26.7s3.3,32,3.3,32s-2.6,8.2,7.3,8.7c9.9,0.5,7.3,0,14.7,0
		c7.3,0,17.3-84.6,23.3-110.6c6-26,4.7-42.7,4-48.6s8.7-23.3,16-23.3c7.3,0,26-15.7,48.6-2c22.6,13.7,2.1,35.7,25.3,40.7
		c23.2,5,30.6,2.4,25.6,24.2c-5,21.8-3.6,56.5,2.7,56.8c6.3,0.3,11,2.2,17-4.4c6-6.6,6.7-17.9,11-19.6c4.3-1.7,14.7-28.3,13.9-38.6
		c-0.8-10.4,5.1,4.3,13.1,5.7s13.3-6,14,3.3s9.3,14.7,9.3,14.7s-0.3-51.3,7.5-52c7.8-0.7,9.8,50.6,16.5,48
		c6.7-2.7-1.4-16.7,4.7-19.6c6-2.9,1,9.7,8,13c7,3.3,11-40.7,19.6-40.7c8.6,0,2.4,30.7,7.1,30.7s2-13.3,4-13.3c2,0-6,14,0.7,13.3
		s1.8-28.7,8.9-29.7c7.1-1,5.8,32.4,13.8,34.4c8,2,6-20,8-20c2,0,0,14.7,4.7,12.3c4.7-2.3-13.5-74.1,17.3-78.3
		c30.8-4.2,83.3-22.7,91.9,1s14,67.6,18.7,74.3c4.7,6.7,1.3,14.7,3.3,24s-2.7,9.3-5.3,16.7c-2.7,7.3-6,3.3-6,14.7s4,18.7,4,24.7
		s-7.3-1.9-4,10.7s6,15.3,4,20c-2,4.7-15.3,10-14.7,14.7s-12-4.2-16,3.5c-4,7.8-10-8.2-10,10.8c0,19-4.7,27.7-6,30.3
		c-1.3,2.7-16.7,4.7-20,10c-3.3,5.3-6.7,12.7-4.7,16c2,3.3-1.3,0,12,3.3c13.3,3.3,16-9.3,22.6-11.3c6.7-2,15.3,2.6,27.3-4
		c12-6.6,14-20,25.3-22.6c11.3-2.7,91.3-10.7,104.6-10.7s18,12,33.3,5.3c15.3-6.7,15.3,7.3,24,0s8.7-16.7,17.3-22
		c8.7-5.3,2.7-4.7,22-12c19.3-7.3,13.3,3.3,26-8c12.7-11.3,20.7-14,14.7-28.7c-6-14.7-11.3-17.3-15.3-12.7c-4,4.7,0.7,3.3-10.7,7.3
		c-11.3,4-6.7-3.3-15.3,6s-20,9.3-14.7,1.3c5.3-8,11.3-2,10.7-16c-0.7-14,6-2.7,6.7-23.3c0.7-20.7-4.7-16,0.7-26.7
		c5.3-10.7,12.7-7.3,4.7-17.3c-8-10-20-4-14.7-28c5.3-24,7.3-39.3,7.3-39.3s-5.8-35.7-2-46.6c3.8-10.9,11.3,6,20,2.7
		c8.7-3.3,4.1,3.3,24.7,5.3c20.6,2,34.6-16,47.3-2.7c12.7,13.3,20.7,32.7,32,32.7c11.3,0,21,24.7,21,24.7V0.1L0.5,0.1V273z"/>
	<path id="XMLID_26_" fill="#9E5411" d="M0.5,243.3c8,13.6,3,20.4,13,20.4s17-13.6,33-10.2s19,12.2,45,10.2s37-11.7,62-20.4
		c25-8.8,25-35,43-20.4c18,14.6,17,45.7,25,45.7s8,52.5,14,52.5c6,0,11-42.8,14-42.8c3,0-1,32.1,5,34c6,1.9,15-30.2,20-31.1
		c5-1,13,29.2,16,29.2c3,0,19-44.2,22-40.6c3,3.6-5,33.8,0,33.8s14-28.2,14-28.2s4-38.9,11-38.9s2,68.1,8,67.1c6-1,2-24.8,9-33.8
		c7-9,10-19.7,12-10c2,9.7,8,76.8,11,77.8c3,1,0-62.2,5-64.2c5-1.9,10-31.1,14-32.1c4-1,6,15.6,11,15.6s7-19.5,11-17.5
		c4,1.9,4,169.2,9,169.2s4-22.4,7-19.5s-1,8.9,7,11.3c8,2.4,11-69.6,11-69.6s0,102.2,5,98.3S460.5,289,467.3,289
		c6.8,0,3.4,46.4,12.6,51.4s-3.8,138.3,6.2,136.3s10-104.1,18-104.1c8,0,3,81.7,6,84.6c3,2.9,7,28.2,12,30.2s13-37.9,18-44.7
		c5-6.8,9-147.8,20-154.6c11-6.8,24-21.4,30-11.7c6,9.7,22,72,17,103.1s-6,57.4-10,64.2c-4,6.8-14,17.5-14,27.2s7,11.7,19,11.7
		c12,0,13-1,25,0c12,1,36-2.9,36-5.8s-5-22.4,0-28.2s-12,2.9,0-13.6c12-16.5,18-5.8,18-23.3s-20-129-6-127.8s23,179.3,32,180.3
		c9,1,17,0,17-13.6s11-9.7,10-45.7c-1-36-1-47.7-6-79.8s-9-61.3-5.5-66.1c3.5-4.9,2.6,45.7,11.6,44.7c8.9-1,12.9-5.8,16.9,16.5
		s8,60.3,11,61.3c3,1,13.1-86.6,13.1-86.6s5.9,19.3,12.9,22.3s-7.3-34.4,5.9-32c13.1,2.4,14.1,9.7,15.1,18.4s5,2.9,9,5.3
		c4,2.4-0.5,13.1,4,21.4c4.5,8.3,1.5,17.5,6.5,19s6-39.4,11-37.9s3,14.1,6.5,21.9c3.5,7.8-2.5,14.6,2.5,15.1c5,0.5,6-10.2,7.5-10.7
		c1.5-0.5-3,40.4,4.5,36.5s8.1-93,12.5-92.9c4.4,0.1,2.5,39.9,5.5,40.4s1-29.7,10-32.1c9-2.4,18.5-4.4,18.5,4.9
		c0,9.2,9.5,0.5,10,5.3c0.5,4.9-1,2.4,2.5,3.9c3.5,1.5,1,5.8,7.5,5.8c6.5,0,7.5-15.1,11.5-11.2c4,3.9,9.5,71,15.5,71s8-71.5,11-70.5
		c3,1-5,63.7,4.5,59.3c9.5-4.4,3.5-76.5,11.2-76.2c7.7,0.3,5.7,54.3,11.7,54.8c6,0.5,5-58.8,13.5-64.7c8.5-5.8,33-23.3,41-21.4
		c8,1.9-10,36,10.5,37.4c20.5,1.5,26.5-52,33-51.5c6.5,0.5,0.5,277.2,12.5,282.1s34-4.9,34-20.4s-4-260.7,12.5-269.9
		s12.5,77.3,24.5,75.4c12-1.9,8-78.7,18-85.1c10-6.4,32,8.2,31,28.6c-1,20.4-3.9,45.7,0,56.4c4,10.7,12-56.4,19-68.1
		c7-11.7,20-19.5,21.5-3.4s1.5,38.4,18.5,38.4s19,18.5,18,37.9s-0.6,31.1,10.2,27.2c10.8-3.9,5.8-106,11.8-111.8
		c6-5.8,39.3-24.6,40-6.8c0.6,17.8,38,7.8,38,7.8V0.1L0.5,0.1V243.3z"/>
	<path id="XMLID_25_" fill="#A66533" d="M1399.4,220.6c0,0-3,73.5-9,71.5c-6-2-9-12-9-12s4,58-6,54.5c-10-3.5-12-36.5-18.5-40.5
		s6,65,0,74c-6,9-5,4.5-8,14.5c-3,10-8.5,18-14,22.5c-5.5,4.5-2-4.5-11,0c-9,4.5-8,8-12.5,6c-4.5-2,1-120-4-133.5s-15-44-17.5-52.5
		c-2.5-8.5,6.5-23.5,0-23.5s-1.5,26.5-10,31c-8.5,4.5-6-19.5-9.5-19.5c-3.5,0,0.5,25.5-7.5,25.5s-3-13-5-14s-13.5-74.5-26.5-71
		c-13,3.5-11,58-21,67c-10,9-6,17-15,26c-9,9-9.5,43.5-16.5,52.5c-7,9-16.5,23.5-19,13c-2.5-10.5-6.5-73.5-9.5-73s-10-87-19-92
		c-9-5-24.5,18.5-30,35.5c-5.5,17-1.5,25.5-8,34c-6.5,8.5-43.5,29.5-51.5,37c-8,7.5,4.5,36,0,50.5c-4.5,14.5-7,24.5-7,40.5
		c0,16,1.5,36.5-7.5,40.5c-9,4-10-9.5-11.5-6c-1.5,3.5-5.5,20.5-8,20.5s-3-80-3-80s-8,68.5-11,68s-5.5-91-11.5-93.5s-1.5-45-7-46.5
		c-5.5-1.5-4,31.5-7.5,34c-3.5,2.5-8-35-15.5-33.5s-15,38-21.5,38.5s-8.5-7.5-10.5-1.5c-2,6-9.5,12-14,27
		c-4.5,15-6.5,27.5-12.5,25.5c-6-2-10.5-42.5-15-42.5c-4.5,0-1.5-43.5-6.5-42.5c-5,1-13.5,63-19,59.5c-5.5-3.5-6-35.1-11-33
		c-5,2.1-5,15-8.5,16s-5-16-10-13c-5,3-1,20-4.5,21.5c-3.5,1.5-6.6-30.7-9.4-27.4s-3.1,28.9-7.1,29.4c-4,0.5-1,14-6,14s-2.5-49-6-49
		s-1,93.5-11,93.5s-3-75-6.5-75s-3,3-7.5,1.5c-4.5-1.5-6.5-25-10-24.5s-5.5,28.5-8.5,28.5c-3,0-19.5-28.5-25.5-28.5s-3,4-8,5
		c-5,1-6,36.5-11.5,37c-5.5,0.5-7.5-20.5-11.5-20c-4,0.5-3.5,24.5-7.5,24s-26-76-34.5-73.5c-8.5,2.5-11.5,49-21,48.5
		c-9.5-0.5-4-20-18.5-18c-14.5,2-16.5,11-20,15c-3.5,4-3.5,14-10.5,14c-7,0-9,13-21,14c-12,1-15.5-99-25.5-96.5s-4.5,88.5-6,99.5
		s1.1,22.5-0.2,39.5c-1.3,17,2.2,47.5-0.3,49c-2.5,1.5-7.5,8.1-11.5,8.1c-4-0.1-18.5-24.1-17.5-33.6c1-9.5-0.1-12,0-23
		c0-11,3-17.5,3-28.5s3.5-27.5-0.5-35.5c-4-8-6.5-17.5-8-18c-1.5-0.5-6,20-5,28.5s0,30-2.5,39s-7.5,12.5-10,13s0-8-3-15.5
		c-3-7.5-5-19.5-4.5-29.5c0.5-10-0.1-27-0.1-27s3.1-68-3.9-68.5c-7-0.5-16.5-16-27.5-14c-11,2-30,4-33,21.5s-18-5.5-25-4.5
		c-7,1,0,8-13.5,13.5c-13.5,5.5-21-6.5-26-6.5s-31-26.5-37.5-24.5s-0.5,11-10,11.5c-9.5,0.5-20.5-25-24-26c-3.5-1-10.5-10.5-13-2.5
		c-2.5,8-8,20.5-11,17c-3-3.5-7.4-23.5-9.5-23.5c-2,0-18.5-3-28,3s-46,6.5-58,12c-12,5.5-36,18-47,11s5.1-18.7-12-11
		c-17.1,7.7-26.5,8-38.5,8.5s-13-6.5-20.5-3.3s-4,23.2-9,22.7s-3-16-7-18.5c-4-2.5-13-4.3-13-4.3V0.1l1398.9,0V220.6z"/>
	<path id="XMLID_24_" fill="#934F22" d="M1399.4,170.1c-4.7,9-2.7,14.5-7,17.5c-4.3,3-19.5,71.5-24.2,72.5c-4.7,1-6.6-33-10.9-33
		c-4.3,0-14-56.5-17.6-57c-3.5-0.5-6.6-43.5-13.7-42.5c-7,1-128.4-28.5-138.1-3.5s-5.5,38.5-10.5,40.5c-5.1,2-3.9-35-10.1-35
		c-6.2,0-32.4,43-33.9,73.5c-1.6,30.5-8.2-22-8.2-32.5c0-10.5-33.6-17-34.3,9c-0.8,26-13.3,71.5-17.9,71c-4.7-0.5-1.2-53-5.9-55.2
		c-4.7-2.2-9.8,57.7-16.8,58.2s-7-59.5-17.2-62s-61.3,16.7-70.6,20c-9.3,3.3-46.4-18.5-58.9-16.3c-12.5,2.3-40.2,11.3-47.2,11.8
		c-7,0.5-7.4,7-20.3,14.5s-14.8,13-17.2,32s-12.5,28-14,28s-2.7-8.5-5.1-7.5s-5.5,6-8.6,7.5c-3.1,1.5-7-8-8.2-8
		c-1.2,0-56.6-49-67.9-69S685.8,223,684.2,223s-5.9-0.5-7.4,14c-1.6,14.5-4.3,202.9-9,203.9c-4.7,1-5.5-24-10.5-24.5
		S645.6,402,644,401s-5.9,16.5-5.9,16.5s-3.1-165.9-6.6-166.4c-3.5-0.5-0.4,13-3.5,14.5c-3.1,1.5-17.2-68-21.1-63.5
		c-3.9,4.5-2.7,9-7,9s-7-21.5-11.3-19s-8.6,43.5-14,43s-5.5-20-10.5-17.5s-4.7,13.5-7.4,13.5s-10.9-32-16-31c-5.1,1-1.6-39-6.2-35.5
		c-4.7,3.5-7.8,29-13.3,28.5c-5.5-0.5-5.5-17.5-11.3-15.5c-5.9,2-12.5,25-16,23.5c-3.5-1.5-1.6-6-3.5-5.8c-2,0.3-0.4,7.8-4.7,7.8
		s-13.3-21.5-23-21.5c-9.8,0-34.7,14.5-48.8,17.5c-14,3-26.5,2.5-34.7-3.8c-8.2-6.2-28.5,9.3-37.1,9.3c-8.6,0-7-9-10.9-2
		s-6.6,19.5-10.9,19s-16.8-71-25.4-73.5c-8.6-2.5-9.4,44-14.8,44c-5.5,0-10.5-46-23-49.5c-12.5-3.5-23-13-23.4,13.5s0,58-4.7,58
		c-4.7,0-13.3-74-20.7-73.5c-7.4,0.5-41.4,7-44.5,11.5c-3.1,4.5-4.7-3-6.6-2.5s-1.2,8.5-5.9,9.5c-4.7,1-2,7.5-3.9,7s-2.7-4-2.7-4
		s0,4-3.1,4.5c-3.1,0.5-2.7-10.5-4.7-10.5s-10.9,3-17.6,6.5c-6.6,3.5-10.5,4.5-15.6,5.5c-5.1,1-0.8,9-4.3,9.5c-3.5,0.5-3.9-6-7-4.5
		c-3.1,1.5-2.7,4.5-7,6c-4.3,1.5-6.2,23.5-8.2,24.5c-2,1-2.3-14.5-3.9-14.5c-1.6,0-2,17.5-4.3,17.5c-2.3,0-2.3-18-4.3-18
		c-2,0-0.8,8-2.7,10c-2,2,0-16.5-2.3-17s-0.4,8.5-2.7,8.5s-4.3-11-5.9-11.5s-1.2,9-4.3,9.5c-3.1,0.5-2.3-8.5-3.5-9
		c-1.2-0.5-1.6,5.5-3.1,5.5s0-9.5-3.1-8.5c-3.1,1,0,19.5-1.6,19.2c-1.6-0.2-6.6-10.2-6.6-10.2s2.3,25,0,25s-4.3-19.5-7-21
		c-2.7-1.5-1.6,14-3.9,14s-0.8-14-4.7-15s-12.6-8.5-12.6-8.5V0.1l1398.9,0V170.1z"/>
	<path id="XMLID_23_" fill="#803D0F" d="M1399.4,71.1c-7,13-26,98-35,102c-9,4-24-65-38-62c-14,3-12,15-21,26c-9,11-9,20-18,18
		c-9-2-10-30.8-16-32.9s3,10.9-5,13.9s-3-11.8-9-13.9c-6-2.1-1,19.9-10,19.9c-9,0-7-55-22-53s0,54-18,56c-18,2-19-61.7-25-47.4
		c-6,14.4,1,48.4-15,46.4c-16-2-14-41.7-36-46.4c-22-4.6-34,42.4-40,42.4c-6,0-3,19-16,18s-15-43-26-47c-11-4-10,162.9-25,164.9
		c-15,2-10-112-24-115s2,68-7,70c-9,2-12-28-25-26c-13,2-15,34-25,30s-6-33-19-32c-13,1-42,35-47,35c-5,0-2-11-9-12
		c-7-1-21,12-24,12c-3,0-8-11-12-14s-20-51-28-50.5c-8,0.5,0,16.5-10,16.5s-21-30-39-16.5c-18,13.5-119.9-33.5-129.9-20.5
		S581,303,577.1,303s-1,9-8,9c-7,0-6-14-17-12s-11-65-19-62s-13,9-22,7c-9-2-9-29-16-28c-7,1-15-4-23-6c-8-2-24-120-38-119
		s-9,108-18,109c-9,1-33-98.7-47-103.3s-62.9,1.4-66.9,7.4c-4,6-8,10-18,6c-10-4-1-6-14,0c-13,6-3,0-25,0s-15,17-31,17s-9-8-31-8
		s-20,18-39,18s-19,1-25-6s-20-9.7-36-14c-16-4.3-42-2-54-1s-29,2-29,2V0.1l1398.9,0V71.1z"/>
	<path id="XMLID_22_" fill="#502304" d="M1399.4,44.1c-30-10-92.9,2-124.9,0c-32-2-64.9-4-83.9,19c-19,23-67.9,22-73.9,36
		c-6,14-41,9-74.9,19c-34,10-27,9-45,0s-14,15.8-40,12.9c-26-2.9-10-29.9-63.9-19.9c-54,10-60,22.6-92.9,20.3
		c-33-2.3-64.9-5.3-70.9,24.7c-6,30-6,36-17,30s0-22-12-20c-12,2-10,20.2-21,22.1c-11,1.9-11,15.1-20,0c-9-15.1-9-55.1-27-58.1
		c-18-3-24-18-28-19c-4-1-11,49-22,51s-5-64-17-63c-12,1,0,9-10,12c-10,3-11-61-45-55.5s-91.9,3.5-142.9,18.5s-68.9,8-82.9,12
		c-14,4,0,5-20,14s-19,28-29,28c-10,0-6-11-27-17c-21-6-25-8-35-12c-10-4-68.9-30-89.9-22s-16,83-26,83s-6.1-98.9-14.5-97.4
		c-8.4,1.5-1.5,28.5-9.4,28.5s-2-61-33-62v-29l1398.9,0V44.1z"/>
	<path id="XMLID_21_" fill="#441C00" d="M1399.4,0.1c-49,7-63.9,11-65.9,25c-2,14-8,50-16,50s-8-40-35-46c-27-6-97.9,20-146.9,8.5
		s-127.9-23.5-160.9,0c-33,23.5-101.9,8.5-110.9,22.5c-9,14-13,30-19,30c-6,0-6-28-13-29c-7-1-23-35-52-48s-71.9-4-72.9,18
		s-6,31-13,29c-7-2,3-40-13-42c-16-2-27-18-167.9-18s-169.9,63-184.9,63s-7-22-31-18s-113.9-20-123.9,0s-9,34-22,35
		c-13,1-16-29-25-23c-9,6,5,54-7,54s-2-43-11-41c-9,2-9,35-26,33c-17-2-3-53-15-55c-12-2-8,21-18,21s-9-31-20-31s-10,50-18,50
		s-11-88-11-88L1399.4,0.1z"/>
	<path id="XMLID_4_" fill="#3A1705" d="M1010.1,713.7c-5.8-16-31.9-50.8-46.3-30.5s-11.6,25.3-43.4-6.2
		c-31.9-31.5-20.3-60.5-40.5-60.5c-20.3,0,20.3-5.8-37.6,17.4c-57.9,23.2-40.5-8.7-57.9,23.2s-14.5,9.6-69.5,7.7
		c-55-1.9-31.9,1-55,27.1s2.9,11.8,37.6,21.8s43.4-10,92.7,0s60.8-7.1,104.2,2.9C937.7,726.6,1010.1,713.7,1010.1,713.7z"/>
	<path id="XMLID_3_" fill="#9E5411" d="M224.3,489.9c0,0-34,3-46,5c-12,2-13,11-12,2c1-9-3.6-36-0.3-51s7.3-8,7.3,0s5-8.6,8-8.8
		c3-0.2,2,24.1,7,26c5,1.8,0.5-17.1,6.2-17.1s1.7,12.3,4.7,17.1c3,4.8,9-18.1,13-14.1c4,4,4,4.1,4,20
		C216.3,484.9,224.3,478.9,224.3,489.9z"/>
	<g id="XMLID_58_" opacity="0.15">
		<polygon id="XMLID_59_" fill="#FF905D" points="77.3,125.7 128,71.3 200.5,88 222.2,159.2 171.5,213.6 99,196.8 		"/>
	</g>
	<g id="XMLID_56_" opacity="0.15">
		<polygon id="XMLID_57_" fill="#C23356" points="79.7,174 140.9,108.4 228.3,128.6 254.5,214.4 193.3,280 105.9,259.8 		"/>
	</g>
	<g id="XMLID_54_" opacity="0.15">
		<polygon id="XMLID_55_" fill="#617BA8" points="199,319 221.7,302.8 247.1,314.4 249.7,342.2 227,358.4 201.6,346.8 		"/>
	</g>
	<g id="XMLID_50_" opacity="0.1">
		<polygon id="XMLID_51_" fill="#F3FF2A" points="354.4,422.6 368,433.6 365.3,450.9 349,457.2 335.4,446.3 338.1,429 		"/>
	</g>
	<path id="XMLID_34_" opacity="5.000000e-002" fill="#8906FC" d="M681.9,559.5c22.1,17.2,26.1,49,8.9,71.1
		c-17.2,22.1-49,26.1-71,8.9c-22.1-17.2-26.1-49-8.9-71.1C628,546.3,659.8,542.3,681.9,559.5z"/>
	<path id="XMLID_14_" fill="#3A1705" d="M1040,897.9c5.3-14.8,29.3-46.8,42.7-28.1c13.3,18.7,10.7,23.3,40-5.7
		c29.3-29,18.7-55.7,37.3-55.7s-18.7-5.3,34.7,16c53.3,21.3,37.3-8,53.3,21.3c16,29.3,13.3,8.8,64,7.1c50.7-1.7,29.3,0.9,50.7,24.9
		c21.3,24-2.7,10.8-34.7,20.1c-32,9.3-40-9.3-85.3,0c-45.3,9.3-56-6.6-96,2.7C1106.6,909.8,1040,897.9,1040,897.9z"/>
	<path id="XMLID_20_" fill="#502304" d="M1399.4,585.9c-20-2-69.9,8-100.9,9c-31,1-144.9,2.7-174.9-4.6s-61-14.4-94.9-18.4
		c-34-4-45.3-17.9-53-21.8c-7.7-3.9,14-7.6,24-15.9c10-8.3,12-23.3,26-21.3c14,2,21.8-17.3,38-11c16.1,6.3,30-3,39-12
		c9-9,10.4-1,33.8,5c23.5,6,19.1-16,30.1-18c11-2,18.4-3,20.2,4s-2.2,15,7.8,16c10,1,6.2-10.7,19-7c12.8,3.8,7,9,18,12
		c11,3,18,5,19,12c1,7-4,13,9,9c13-4,7-14,18-6c11,8,9,12,20,9c11-3,8-4,25-4s22-5,34,0c12,5,2,11.6,9,12.3c7,0.7,16,7.7,20,9.7
		c4,2,14,14,14,14V585.9z"/>
	<path id="XMLID_12_" fill="#502304" d="M613.1,506.9c11,0,26-3,27,5c1,8,9-3,33,0c24,3,41,4,55,3s25,12.7,25,0.4s-17.9-8.3-16-22.3
		c1.9-14,10-37,0-43c-10-6-9.5-17.6-17.7-28.8s-19.2-11-23.2-6.6c-4,4.4-11,2.3-20,13.4s-22,14-22,23c0,9,3,27-4,27.5
		c-7,0.5-2-7.5-12,0s-14-2.5-20,9.5S613.1,506.9,613.1,506.9z"/>
	<path id="XMLID_18_" fill="#3A1705" d="M364.9,709c-26.1,0-61.7-3-64,5c-2.4,8-21.3-3-78.3,0s-97.2,4-130.4,3s-59.3,12.7-59.3,0.4
		S75.4,709,70.8,695c-4.6-14-23.7-37,0-43c23.7-6,22.5-17.6,42.1-28.8c19.6-11.2,45.7-11,55.1-6.6c9.5,4.4,26.1,2.3,47.4,13.4
		c21.3,11.1,52.2,14,52.2,23c0,9-7.1,27,9.5,27.5s4.7-7.5,28.5,0c23.7,7.5,33.2-2.5,47.4,9.5C367.3,702,364.9,709,364.9,709z"/>
	<path id="XMLID_37_" opacity="5.000000e-002" fill="#617BA8" d="M749.6,540.1c55.5,43.1,65.5,123.1,22.4,178.6
		c-43.1,55.5-123,65.5-178.5,22.4C538.1,697.9,528,618,571.1,562.5C614.2,507,694.1,497,749.6,540.1z"/>
	<path id="XMLID_10_" fill="#502304" d="M0.6,578.2c21.7-2.1,75.9,8.2,109.5,9.3c33.6,1,157.1,2.8,189.6-4.8s66.1-14.8,103-18.9
		s49.1-18.4,57.4-22.4c8.3-4-15.2-7.9-26-16.4s-13-24-28.2-21.9s-23.7-17.8-41.2-11.3s-32.5-3.1-42.3-12.4c-9.8-9.3-11.2-1-36.7,5.2
		S265,468.1,253.1,466s-19.9-3.1-21.9,4.1c-2,7.2,2.4,15.4-8.5,16.5c-10.8,1-6.7-11.1-20.6-7.2s-7.6,9.3-19.5,12.4
		c-11.9,3.1-19.5,5.1-20.6,12.4c-1.1,7.2,4.3,13.4-9.8,9.3c-14.1-4.1-7.6-14.4-19.5-6.2c-11.9,8.2-9.8,12.4-21.7,9.3
		c-11.9-3.1-8.7-4.1-27.1-4.1s-23.8-5.1-36.8,0c-13,5.1-2.2,11.9-9.8,12.7s-17.3,7.9-21.7,10c-4.3,2.1-15.2,14.4-15.2,14.4V578.2z"
		/>
	<g id="XMLID_38_" opacity="5.000000e-002">
		<path id="XMLID_39_" fill="#F3FF2A" d="M560.4,701.3c-57.8,5.8-114.4-11.3-159.4-48c-45-36.8-72.9-88.9-78.7-146.7
			c-5.8-57.8,11.2-114.5,48-159.4c36.8-45,88.8-73,146.6-78.8c57.8-5.8,114.4,11.3,159.4,48c45,36.8,72.9,88.9,78.7,146.7
			s-11.2,114.5-48,159.4C670.3,667.5,618.2,695.5,560.4,701.3z M518.3,282.2C406.7,293.4,325,393.4,336.2,505.1
			C347.4,616.8,447.3,698.6,559,687.3s193.4-111.2,182.1-222.9C729.9,352.7,630,271,518.3,282.2z"/>
	</g>
	<g id="XMLID_44_" opacity="5.000000e-002">
		<polygon id="XMLID_45_" fill="#F3FF2A" points="954.7,694.7 1054.9,640.9 1151.6,700.8 1148,814.5 1047.8,868.3 951.2,808.4 		"/>
	</g>
	<g id="XMLID_42_" opacity="5.000000e-002">
		<polygon id="XMLID_43_" fill="#FFFFFF" points="1119.9,760.9 1240.7,696.1 1357.3,768.3 1353,905.4 1232.2,970.3 1115.6,898 		"/>
	</g>
	<path id="XMLID_36_" fill="#331503" d="M0.6,841.7c31-11.2,46.5-2.7,76.7,0c30.2,2.7,14.7,8.4,47.4,0c32.7-8.4-1.2-12.6,56.7-9.1
		s39.6-0.4,81.7-1.2c42.2-0.8,80.9,13.2,138.5,10.3c57.6-2.8,79.6-8.7,115.5-3c36,5.7,28,19.6,71.9,27.9s75.8,1.4,110.9,1.4
		c35,0,65.2-9.9,90.1,2.7s42.9,29.9,72.9,31.7c30,1.7,62-15.6,79.9,0c18,15.6,60,37.8,67.9,39.2c8,1.4,8-1.4,50,8.3
		c42,9.7,52.2,22.9,76.1,23.3c23.8,0.3,262.6,6.7,262.6,6.7H0.5L0.6,841.7z"/>
	<linearGradient id="XMLID_46_" gradientUnits="userSpaceOnUse" x1="1.6439" y1="489.9409" x2="1400.5154" y2="489.9409">
		<stop  offset="0" style="stop-color:#C17A25"/>
		<stop  offset="0.1882" style="stop-color:#EAA53C"/>
		<stop  offset="0.5" style="stop-color:#9E5411"/>
		<stop  offset="1" style="stop-color:#461E06"/>
	</linearGradient>
	<rect id="XMLID_33_" x="1.6" opacity="0.4" fill="url(#XMLID_46_)" width="1398.9" height="979.9"/>
	
		<radialGradient id="XMLID_47_" cx="250.4126" cy="436.8656" r="1199.0477" gradientTransform="matrix(1 0 0 0.4729 0 230.2635)" gradientUnits="userSpaceOnUse">
		<stop  offset="0" style="stop-color:#C17A25"/>
		<stop  offset="0.1882" style="stop-color:#EAA53C"/>
		<stop  offset="0.745" style="stop-color:#9E5411"/>
		<stop  offset="1" style="stop-color:#461E06"/>
	</radialGradient>
	<rect id="XMLID_35_" x="1.6" opacity="0.4" fill="url(#XMLID_47_)" width="1398.9" height="979.9"/>
</g>
</svg>
