<?xml version="1.0" encoding="utf-8"?>
<!-- Generator: Adobe Illustrator 18.1.1, SVG Export Plug-In . SVG Version: 6.00 Build 0)  -->
<svg version="1.1" id="Layer_1" xmlns="http://www.w3.org/2000/svg" xmlns:xlink="http://www.w3.org/1999/xlink" x="0px" y="0px"
	 width="1400px" height="980px" viewBox="0 0 1400 980" enable-background="new 0 0 1400 980" xml:space="preserve">
<g>
	<rect fill-rule="evenodd" clip-rule="evenodd" fill="#00101F" width="1400" height="980"/>
</g>
<g>
	<path fill-rule="evenodd" clip-rule="evenodd" fill="#0B3356" d="M0,0h1400v285.3l-5.6,17.9l-8.2-98.5l-5.2,143.3l-8.2-75.2
		l-12.6,127l-7.1-49.3l-5.2,91.5l-10.4-123.7l-11.9,83.7l-2.8-34.3l-5.9,69.6l-10.4-41.5l-11.8,75.5l-11.9-25.2l-5.9,28.1l-1.5,7.4
		l-10.4,20.7l-4.4,42.9l-11.9-19.2l-4.4-3l-17.8,1.5l-4.4,2.9l-19.2,31.1l-3,5.9l-5.9,17.8l-10.4,48.9l4.4,19.2l41.5,38.3l65.2,22
		h5.9h59.2l40.1,6.3V980H0V732.7l53.6-2.5c2.8-0.6,1.6-0.8,5.1-0.7l41.4-3c3.5-0.8,6.9-1.1,10.3-2.2l35.6-4.4l3-1.5l23-11.1
		c1.9-0.5,2.7-1.2,4.4-2.2l31.1-8.1l3-2.2l19.2-11.1c3.3-2.3,2.9-3.2,4-6.7l6.2-20.7c0-2.4,0-4.9,0-7.4l-1.8-7.4
		c-3-3.6-0.8-5.6-7.6-11.1l-20.1-20.7c-1.8-1.7-3.7-7.1-4.5-9.6l-1.5-10.4c0.1-1.5-0.8-2.8-1.5-4.4l-10.4-20l-2.2-3.7L177.9,548
		c-1.5-2.8-3.6-4.3-5.9-6.6l-14.1-17c0-3.6-1.5-7.9-3-11.1l-5.9-9.6c0.1-2.8-0.4-1.1-0.7-4.4l-8.9-19.2l-5.2-20l-10.4-18.5l-1.1-2.2
		l-4.8-27.4v-2.2l-6.3-8.9l-2.1-2.2l-5.8-20.7l-17-13.3l-26.6-5.2l-16.3,7.4l-14.1,12.6l-12.5,17L0,443.6V0z M602.9,697.8l-9.8-37
		L573,634.8v-3.7l0.9-17.8l1.6-3l3-24.4c1.6-2.7,1.6-4.5,3.3-6.7l9.3-48.9v-3.7v-16.3l1.9-4.4l17.2-31.8c1.3-4.1,0.5-5.5,1.6-10.4
		l8.2-51.8c1.5-2.6,3.6-6,4.5-8.9l0.7,32.6l3.7-28.9l12.6,105.1L654,382.3l6,25.9l2.2-26.7l3.7,43l8.9-42.2l6.7,47.4l8.1-94
		l3.7,29.6l3.7-23.7l8.9,45.2l4.4-17l4.4,39.3l2.2-14.1l2.9,21.5l13.3,25.9l12.6,18.5c2.6,4.3,3.8,5.6,4.4,10.4l11.9,6.7
		c5.2,4.9,3.3,6.3,7.4,11.1l11.1,29.6c-0.2,6.1,3.3,8.2,3,13.3l2.2,13.3l1.5,2.9l3.7-53.3l5.9,34.1l5.2-25.9l8.2,59.3l5.9-14.8
		l3,8.9l11.1-10.4l23-13.3l3.7-21.5l1.5-3l8.2-15.5c1.5-2.4,2.5-4.9,3.7-7.4l5.9-14.8c1.4-2.3,2.3-4.3,3.7-6.7l18.5-23
		c4.8-0.5,1,1.1,7.4,3.7l8.2,8.9c0.5,1.7,1.5,4.2,1.5,5.9l0.7,13.3c0.1,1.6,1.6,6.5,2.3,8.2l13.4,19.3c0,3.7,0,7.4,0,11.1l5.1,31.8
		l2.9-15.5l6.6,19.2l10.4-5.9v45.9l4.4-36.3l8.9-3l10.5-22.2c15.3-13.7,12.2-16.4,14.2-18.5v-9.6c1-3.6,0.6-6.5,0.6-10.4l2.9-22.2
		l2.2-2.2l16.3-18.5l4.4-23l20-13.3c4.7,2.2,3.3,6.1,6.6,12.6l11.2,28.1c1,4.7,0.8,5.9,0.8,10.4v23l0.3,2.2l4.7,29.6v2.2l5.6-28.1
		l1.7,46.6l0.8-38.5l5.2,65.9l3.8-47.4l6.8,75.5v-33.3l1.4,17l5.1-15.5l4.4,71.1l5.9-30.4l2.7,34l3.4-11.8V657l-8.6,19.2l-14,9.6
		l-26.6,13.9l-20.6,7.2h-2.2l-32.6,4h-2.2l-25.9,10.5c-5.8,5.1-5.5-0.5-8.2,4.5h-11.9c-1.5,0-3,0-4.4,0l-34.8-9.3l-4.4-2.2
		L901.4,696h-3l-18.5-5.4c-4.8-2.3-5.6-3.7-8.2-8.3l-7.4-11.3c-3,0-5.9,0-8.9,0l-13.3,1.5c-3,2.7-1.8,1.8-3.7,4.5l-8.2,11.1
		l-4.4,0.7l-25.9-3.7l-3.7,2.2l-23,13.3c-5,2.1-4.3,2.3-10.4,3.7l-19.2,1.5c-6.5,3.8-10.1,5.4-17.8,5.2l-28.9-1.5l-13.3,6.6
		l-25.9,5.2c-5.8,2.2-6.5,1.5-12.6,1.5l-31.8-14.1L602.9,697.8z"/>
</g>
<g>
	<path fill-rule="evenodd" clip-rule="evenodd" fill="#164A78" d="M0,0h1399v189.9l-12.5-47.7L1371.9,243l-4.3-57.8l-10.3,140.7
		l-7.4-72.6l-11.8,63.7l-7.4-90.4l-8.9,71.1l-5.9-94.8l-3,130.3l-10.4-48.9l-10.4,90.4l-8.9-32.6l-10.4,77l-10.4-62.2l-7.4,105.1
		l-4.4-35.5l-5.9,43l-11.9-43l-10.4,78.5l-1.5-40l-11.8,26.7l-11.9-40l-4.4,60.7l-17.8,37l1.5,62.2l-5.9,32.6l40,44.4l38.5,19.3
		l-65.2-1.9l83,18.9h74.1h44.4l13.5,4.3v38.3l-30.2,5.6l-53.1,19.3l-62.1-4.4l44.5-7.4l35.6-14.8l-54.8-1.5l-37,7.4l-31.1,17.8
		l-74.1,26.7l54.8-3l63.7,28.2l75.6,13.3l-62.2,10.4l-74.1,14.8l-111.1-4.4l60.8-2.9l63.7-17.6L1147,849h-43h-5.9l-17.8,7.3
		l-47.4,11.8l-53.3,19.2l-109.6-3l57.8-5.9l28.2-13.4h41.5l25.2-17.7l38.5,1.5l20.8-10.3l-50.4-11.9l-53.3-2.9
		c-5.4-2.1-6-1.1-11.9-3l-13.3-8.9l-71.1,4.4l-35.6-3L764.8,828l-48.9-8.9L658.1,831l-56.3-8.9l74.1-10.4l35.6-4.4l53.3,7.4
		l62.2-13.3l22.2-5.9l44.4-1.5l10.4-14.8l-77-7.4l-34.1,5.9l-35.6-5.9l66.7-7.6l63.7,2.8h4.4l50.4-5.8L880.3,748l-53.3-7.4
		l-1.5-20.7l-37-2.9l13.3-8.9l29.6-8.9l25.2-13.3l23.7,19.2l10.4,19.2l50.4,13.3l31.1,4.4l53.3-17.8l4.4,1.5l37.1,4.4l35.6-19.3
		l7.4-6.3l34.1-7.8h4.4l-5.5-28.9c0-3,0-5.9,0-8.9l6-8.9v-37.1l-29.1-29.6l1.7-23.7l-13.2-14.8L1104,514v-17.8l3-38.5l-5.9-66.6
		l-14.7,87.4l-4.3-60.7v-5.9l-7.5,23.7l-13.4-66.6l-7.4,32.6l-7.4-80l-10.3,74v-68.1l-1.6,23.7l-8.9-34l-4.5,22.2v-35.5l-11.8,54.8
		l-10.4-62.2l-7.4,45.9l-22.2-82.9l-29.6,151.1l-7.4-45.9l-8.9,60.7l-7.4-74.1l-19.3,44.4l-4.4-51.8l-4.7,45.9L868,420.7v26.7
		l-17.5,23.7l-13.2,32.6L827,521.4l-10.4-37.1l1.5-11.8l-4.4-23.7l4.4-22.2l-14.8-62.2l-2.9,26.7l-10.9-74l-9.4,22.2v-48.9l-8,32.6
		v-59.2l-16.2,182.2l-7.4-97.8L733.7,397L724.8,286l-22.2,44.4l-8.9-34.1l-5.9,40l-10.4-62.2l-8.9,80l-11.9-54.8l-16.3,47.4
		l-1.5-29.6L627,397l-1.5-53.3l-11.8,75.5l-7.4-31.1l-7.4,42.9l-8.9,43l-17.8,38.5l-7.4,14.8L547,552.6l-14.8,34L502.6,597
		l-8.9,29.6L478.8,597l-32.6-8.9l-1.5-20.7l-19.3-17.8l-10.4-44.4l-11.9-19.2l-31.1-66.6l14.8,62.2l20.7,48.9l3,34l22.2,38.5
		l-47.4,4.4l38.5,10.4l23.7,16.3l44.4,7.4l10.4,14.8l35.6,13.3l-3,32.6l63.7,8.9l40,22.2l59.3-8.9l25.2,3l25.2-5.9l17.8,1.5
		L744,734.7l-22.2,7.4l-65.2-1.5l32.6,20.7l35.6,5.9l-56.3,3l-77,4.4l-51.9-1.5l-50.4,4.6L470,775h-4.4l-28.1,2H384l66.7,19.3
		l66.7,17.7h-56.3l-69.6,6.3L344,813l-78.5,25.4l57.8,10.6h51.9l88.9,22h-71.1l65.2,7.4l-54.8,4.4l41.5,13.3l80,10.4l-93.3,3
		l-93.3,10.4l-60.8-10.4l-57.8-4.4l-71.1-17.8l72.6,3l85.9-5l66.7-18.3h-91.9L227,854.1l-59.3,4.9h-65.2l25.1,11.9L0,866.3v-4.8
		l118.8-12.7l-75.5-5.9l51.9-4.4l114.1-13.3l-53.3-7.4l31.1-1.4l53.3-19.2h54.8l-57.8-14.9L164.8,754l-68.2-10.4l44.4-3l38.5-8.9
		l20.8-10.4l37-3l16.3-22.2l25.2-10.4L258.1,671l5.9-34l22.2-4.4l17.8-14.8l-31.1,4.4l-48.7-20.7L214,582.1v-17.8l-15-20.7
		l-4.5-22.2l2.9-16.3l16.3-13.3l-23.7-8.9l-2.9-13.3l16.3-13.3l13.3-23.7l10.4-16.3l-12.3-84.4l-10.8,77V363l-17.4,47.4l-7.2-41.5
		l-19.1,41.5L147,383.7l-4.4,60.7l-8.9-48.9l-7.4,19.3l-1.5-35.5l-8.9,16.3l-4.4-29.6l-3.9,24.2l-3.5-12.1l-1-0.8l-5-54.3l-3,23.7
		L86.3,320l-5.9,19.3L70,328.9l-7.4,22.2l-3.3-20.7L53,346.7v-37l-8.5,22.2l-5.8-34.1l-5.8,44.4L24,364.4l-8.9-10.4l-3,20.7l-6-37.1
		L0,371.6V0z"/>
</g>
<g>
	<path fill-rule="evenodd" clip-rule="evenodd" fill="#2D7ABD" d="M0,0h1400v110.2l-19.7-34.6l-14.9,88.9l-7.5-78.5l-10.4,114
		l-28.2-85.9l-2.9,87.4l-17.8-96.3l-17.8,179.2l-13.3-84.4l-11.9,85.9l-5.9-77l-13.3,125.9l-14.9-78.5l-7.5,72.6v-44.4l-16,44.4
		v50.4l-20.8,48.9l2.9,44.4l-17.8,45.9l7.2,69.6L1159,634v-28.1l-7.2-34.1l-20.7-32.6l16.4-19.3l-13.3-35.5l8.9-20.7l-16.3-26.7
		l5.9-25.2l-14.8-19.2l-10.4-80l-13.3,42.9l-6.4-53.3l-7.8,44.4v-81.4l-10,35.5l-2.7-146.6l-26.6,162.9l-10.3-96.3l-8.9,38.5
		l-11.8-85.9l-14.8,48.9L986,106.8l-14.8,68.2l-3-48.9l-17.8,102.2l-8.9-100.7l-5.9,59.2L914.9,74.2l-32.6,151.1L869,176.4
		l-4.4,57.8l-10.4-97.8l-14.8,80L823.1,126l-7.4,47.4l-17.8-82.9l-19.2,65.1l-7.4-44.4l-13.3,56.3l-7.4-40l-20.7,112.6l-4.4-40
		l-5.9,50.4l-1.5-77L706,237.1l-13.3-87.4l-11.8,87.4l-25.2-77L643.8,246L632,151.2l-14.8,106.6l-5.9-40l-16.3,109.6l-2.9-32.6
		l-14.8,75.5l5.9,47.4l-11.9,51.9L545.7,517L532,478.5v-54.8L522,480v4.4l15,32.6l-5.8,35.5l-22.2,8.9l-17.8,25.2l-37-42.9
		l-14.8-48.9l8.9-28.2l4.4-66.6l16.3-47.4l-32.6,51.8l-24,51.9L384,417.8v-66.6l20.6-22.2l1.4-57.8v-5.9l-15.9-3l-8.7-94.8
		L369.6,246L354.9,209l7.4,68.2l-14.8,53.3l-8.9-53.3l3,57.8l16.4,51.8v38.5l23.6,38.5l1.5,37l-7.4,31.1l-7.4,32.6l11.9,31.1
		l-28.1,7.6l31.1,23.9h34.1l29.6,17.6l3,4.3l1.5,17.7l-45.9,5.9l7.4,13.3l40-10.4l5.9-1.5l53.3,13.3l5.9,31.1l37,7.4l-4.4,10.8
		l45.9,15.3h-22.2h-43l-38.5,14.4l-93.3,4.7l56.3-19h-17.8c-9.4,0-18.8,0-28.1,0l-47.4-7h-4.4l-35.6,22.3l-35.6-2.9l-16.3-16.3
		l-56.3-10.4l40-8.9l29.6-13.3l17.8-15.1l38.5,2.6h20.8l11.8-12h10.4l-14.8-10.7l-30,8.7L317,675.5v-20.7l30.1-3l1.7-29.6L312,597
		v-22.2L277.9,560l-3-17.8c0-5.7-0.2-3.6,3-10.4l10.4-7.4l5.9-32.6l-51.9-35.5l1.5-50.3l-4.4-80l-1.5-4.4l-17.8-8.9l-5.9-40l-8.9,34
		l-10.4-80l-19.2,91.8l-7.4-91.8L152,271.2l-13.3-57.8l-13.3,115.5l-5.9-47.4l-11.8,34l-13.3-94.8l-20.8,44.4l-10.4-47.4l-16.3,54.8
		L37.9,209l-7.4,35.5l-13.3-50.3L0,229.8V0z"/>
</g>
<g>
	<path fill-rule="evenodd" clip-rule="evenodd" fill="#164A78" d="M0,0h1400v5.6l-16.8,15.2c-12.7,6.3-36.4,5.2-50.5,7.4l-59.3,41.5
		l-3,4.4l-63.7,20.7l-25.2,14.8l-28.1-28.1L1129.6,200l-16.3-57.8l-13.3,75.5l-13.3-130.3l-29.6,45.9l-5.9,4.4l-4.4-19.2
		c-2.1-2.5-4.1-10.2-4.4-13.3l-20.8-10.4l-10.4-1.5l-26.7-1.5c-2.1-2.1-1.5-3.2-3-7.4l-19.2-8.9L937,80l-28.1-38.5l-20.8,91.8
		l-11.8-77l-11.9,71.1l-8.9-56.3l-1.5-13.3l-19.3,59.3l-10.4-65.2l-3-7.4l-11.8,51.9l-13.3-80l-28.2,81.4l-13.3-16.3l-26.7,51.8
		l-7.4-37l-34.1,59.2L663,90.4l-23.7,38.5l-4.4,1.5L623,93.4l-20.8,68.2l-8.9-34.1L571,195.6l-12,50.4v5.9l-56.1,35.5L480.7,317
		l-13.3-125.9l-8.9,60.7l-5.9-75.5l-11.8,35.5l4.4-38.5l-38.5-1.5l-10.4-20.7l-1.5-4.4l-22.2,7.4l-5.9,3l-50.4,1.5l-37.1,31.1
		l-31.1,7.4l-17.8-22.2L217,203l-17.8-35.5l-2.9,48.9l-7.4-66.6l-16.3,47.4l-8.9-43l-16.3,34.1l-4.4-63.7l-14.8,53.3l-11.8-66.6
		l-41.5,69.6L67.4,126L57,176.3l-19.2-75.5l-13.2,51.9L0,78V0z"/>
</g>
<g>
	<path fill-rule="evenodd" clip-rule="evenodd" fill="#63AEF0" d="M9.4,0h729.2l-14.3,117.3l-1.5-100.8l-22.2,90.3l-8.9-71.1
		l-51.9,128.8L622,62.3l-23.7,125.9L583.5,78.6l-16.3,96.3L552.4,65.2l-25.2,158.5l-14.8-109.6L496.1,246l-13.3-112.6l-1.5-7.4
		l-18.1,87.4L460,103.8v-4.4L439.5,160l-19.3-96.2L395,160V74.1l-9,57.8v4.4l-7.1-48.9l-8.8,45.9l-7.4-48.9l-23.7,85.9l-1.5-62.2
		l-17.8,139.2l-29.6-136.3l-19.3,139.2l-1.5-128.9l-17.8,68.1l-16.3-48.9l-7.4,51.9L216.1,123L188,213.3l-13.3-88.9l-4.4,77
		L158.3,75.6l-2-8.9L138,121.5V68.2l-20,53.3V57.8l-17.6,130.4L84.2,47.5l-25.1,80L29.4,13.4L22,84.6L9.4,0z M359.6,728.6l15.9,3.7
		l8.2-2.6l-5.9-4.1L359.6,728.6z M320.8,724.1l-37.4,9.6l54.1-3.7l15.2-3.7L320.8,724.1z M472.5,705.3l-19-13.3l3.2-8.5l41.3,10.7
		v16.3L472.5,705.3z M422.6,649.3l-20.4-13.7l-38.7,12.6l-30.5,10v4.1l43.5-9.7l21,5.9L422.6,649.3z M440.9,315.2l-17.8-56.3
		l11.9,11.9l11.8,40L440.9,315.2z M486.1,375.9l-11.9,50.4l-14.1,40l8.2,49.6l31.8-8.9l-3.7-77l10.4-41.5L486.1,375.9z M286.8,301.9
		l-1.5,52.6l1.3,2.9L314,390v2.2l-3,28.1v34.1l24.6,22.2l1.6,3.7l8.2,37l1-2.2l18.7-55.6v-2.2l-25.4-45.2l2.5-39.3L309,344.8v-2.9
		l-5.9-43L286.8,301.9z M739.7,0H756l-6.5,62.6L739.7,0z M768.8,0h22.5L780,38.6v8.9L768.8,0z M817.7,0h22.8L827,51.9v4.4L817.7,0z
		 M845.4,0h27.8l-6.7,47.6l-5.9-40.1l-10.4,59.4L845.4,0z M877.3,0h18.6l-13.1,46.3L877.3,0z M910,0h99.2l-16.8,71.3L979.1,9
		l-20.8,57.7l-8.9-41.5l-8.9,28.1l-5.9-28.1l-5.9,25.3L910,0z M1021.3,0h194.2l-12.7,114.3l-5.9-84.5l-1.5,214.7l-17.8-69.6
		l-34.1,74l14.8,94.8l8.9,37l-28.1,38.5l10.4-44.4l-31.1-53.3l-4.4-31.1l1.5-35.5l-14.8-127.4l-8.9,45.9l-25.2-121.4l-5.9,68.1
		l-17.8-88.9l-8.9,40.2L1021.3,0z M1228.8,0h14.4l-3.4,61.1L1228.8,0z M1248,0h24.1l4.8,147L1248,0z M1285.3,0h37.7l-3.1,84.8
		L1285.3,0z M1327.2,0h27.2l-21.3,73L1327.2,0z M1370.3,0h20.3l-10,56.7L1370.3,0z"/>
</g>
<g>
	<path fill-rule="evenodd" clip-rule="evenodd" fill="#FFFFFF" d="M0,0h745.7l-16.2,93c-5.9-23.1-11.8-46.2-17.7-69.3
		c-9.7,64.4-19.3,128.7-29,193.1c-4.8-31.7-9.7-63.3-14.5-95c-5.4,58.5-10.7,116.9-16.1,175.4c-11.3-78.9-22.5-157.7-33.8-236.6
		c-5.9,50.5-11.8,100.9-17.7,151.3c-8-59-16.1-118-24.1-177c-11.8,35.4-23.6,70.8-35.4,106.2c-2.7-11.3-5.4-22.5-8-33.8
		c-10.2,38.1-20.4,76.2-30.6,114.3c-15.6-66-31.1-132-46.7-198c-7,33.3-14,66.5-20.9,99.8c-6.4-27.9-12.9-55.8-19.3-83.7
		c-7.5,16.7-15,33.3-22.5,49.9c-5.4-19.3-10.7-38.6-16.1-57.9c-17.7,63.3-35.4,126.6-53.1,189.9c-2.7-10.2-5.4-20.4-8-30.6
		c-6.4,25.2-12.9,50.4-19.3,75.6c-13.9-56.9-27.9-113.7-41.9-170.6c-3.7,13.4-7.5,26.8-11.3,40.2c-4.3-20.9-8.6-41.8-12.9-62.8
		c-8,37.6-16.1,75.1-24.1,112.7c-9.1-44.5-18.3-89-27.4-133.6c-5.9,27.9-11.8,55.8-17.7,83.7c-5.9-24.7-11.8-49.3-17.7-74
		c-4,27.7-7.9,55.5-11.9,83.2c-5.2-20.7-10.3-41.5-15.5-62.3c-7,44-14,88-20.9,132c-7-31.1-14-62.2-20.9-93.3
		c-1.6,18.8-3.2,37.5-4.8,56.3c-3.6-16.5-7.2-33.1-10.8-49.6c-2.8,11.3-5.7,22.6-8.5,34C46,136,41.7,109.6,37.4,83.1
		c-3.7,44-7.5,88-11.3,132c-1.6-15-3.1-30.1-4.8-45.1L0,259.4V0z M767.6,0h12.6L773,23.9L767.6,0z M999.6,0h18l-9.6,40L999.6,0z
		 M1054.4,0h16.3c9.1,48,18.2,97.5,27.4,146.2L1128.8,0H1070c0,36,0,72.5,0,108.9L1054.4,0z M1190,0h13.3l-3.7,36.8L1190,0z
		 M1210.7,0H1400v149.5l-8.7-53.5c-2.1,11.3-4.4,22.5-6.5,33.8c-5.9-33.2-11.8-66.5-17.7-99.8c-11.3,76.7-22.6,153.4-33.8,230.1
		c-5.4-57.4-10.7-114.8-16.1-172.2c-6.4,22.5-12.9,45.1-19.3,67.6c-3.7-44-7.5-88-11.3-132c-8.6,70.3-17.1,140.5-25.7,210.8
		c-5.4-48.8-10.7-97.6-16.1-146.5c-1.6,27.9-3.2,56-4.8,83.9L1210.7,0z"/>
	<path fill-rule="evenodd" clip-rule="evenodd" fill="#164A78" d="M0,0h740.3l-12.2,62.6L708.9,8l-3,17l-10.7,77.4l-8.9,49.2
		L674,110.1l-7-51.9l-1.5,54.1l-3.7,15.6l-4.4,56.6l-7.8,8.9L635.5,146l-7.4-69.6l8.5-57.4l-12.2,40.8L607,9.1l9.3,42.6l-3,21.1
		l-12.6,75.2l-10.4-46.6l-13.7-84.8L560,72.7l-17,44.8l-13.3-29.3l-17.4-50.7l16.7,65.1l-24.1,86.7l-18.5-78.5l-1.9-24.4l-12.6-24.8
		L455.9,9.4l-10,23.7l-17.8,40.3l-14.6-45.7l-17.8,44.8l-10.7-23l-9.7-40l-4.4,21.1l-17.1,52.6L367,35.2V1.8l-4.7,31.5l-12.7,35.5
		l-9.7-22.6l-15.2-25.2l15.5,34.4l7,26.3l-1.1,9.6l-0.1,1.5v15.5l-22.2,87.8l-6.9-15.6l0.7-14.8L298,102.5l11.1,53.7l-2.6,15.1
		l4.1,15.6l-0.4,1.5L296.4,231l-1.5-12.9l-7.8-20.7l-10-41.8l8.9-91.8L272,145.5l-16.3-70.4l-11.5,33.3l-10.4-43.7l14.1-57.4
		l-19.6,43.3l-14.8-38.5L229,67.4l-23,80L171.6,15.9l5.9,31.5l-15.9,68.1l-18.2-67l-13.3,67.4l-12.6-50.3l14.8-55.2L115.7,57
		L99.4,17l14.5,47.4l-1.1,24.8l-6.3,17l-1.5,18.9l-11.9,63.7l-16.7-75.9l4.8-22.2l11.9,41.8l10-61.1l-11.9,50.7L80.9,79.9l-8.5,32.6
		l-5.5,36.3l-8.9-38.1l-6.4,30L47,105.5v-20L34.9,30l2.8,36.6l-3.4,25.9l-6.7,27l1.8,9.2l-6.7,34.1L8.3,122.2l9.7,41.5L0,231.2V0z
		 M770.8,0l3.4,11.8L778.4,0H770.8z M1001.5,0l5.2,22.4L1015,0H1001.5z M1061.7,0l3.8,27.5l2.1-27.5H1061.7z M1073,0l11.4,29.6
		l1.5,25.5l4.4,15.5l7.8,38.9l18.1-70l0.8-22.2l8.5-9.8l1.8-7.4H1073z M1192.1,0l1.9,4l3.3,13.8l2.9-17.8H1192.1z M1212.5,0
		l5.1,25.9l5.4,20.6v10.7l4,8.9v7.1l10.9,47.4l5.7-37.8l-4-23.3l-4.8-10.7l1.5-33.7l1.5,29.2l5.6,11.9l0.8,15.9l3.8,9.2v13l7.3,54.4
		l5.7,33.7l7.8-45.6l1.2-24.1v-1.1l5.9-22.6l-2-15.6l5.1-17.4v-8.2l6.8-29.6l-2.9-12.6l5.6,8.2l-0.4,8.2l5.9,13.3l0.5,18.9l0.5,1.5
		v27.8l8,28.1l-1.5,15.6l13.3-47l3.3-1.5L1310,49l14.1,25.5c0.1,3.6,1.1,1.2,1.1,4.8l-3.3-1.1l3.3,25.2l-0.4,15.9l7.4,35.2
		l-3.4,15.2l5.2,11.8l14.8-90.3l5.9-43.3l4.1-12.6l-11.1-31.1l12.9,24.1L1374,3.8l0.8,7.1l-1.1,9.6l3.7,25.9l6.6,51.8l2-27l14,39.3
		V0H1212.5z"/>
	<path fill-rule="evenodd" clip-rule="evenodd" fill="#00101F" d="M0,0h91.3l-3.9,26.2l-1.5,33.2L70.4,73.5l-7.4,25.9L51.5,77.4
		L34.9,13.4L22.7,52.2l3.9,25.9L22.9,92l-10.7,23.3L0,86.8V0z M100.1,0h31.5l-22.8,17.5L100.1,0z M142.5,0h22.1l11.5,39.5
		l-13.8,27.3L157,44.6l0.7-29.5L142.5,0z M168.5,0h45l14.6,24.2L250.3,0h101.3l-1.3,14.4l-4.4,24.4L327,25.2l-2.4-4l1.5,3.4
		L315.5,9.8l8.9,36.3l-0.7,16.3l6.6,25.2l-8.9,44.4l-22.2-38.5l-8.9-54.8l-17.8,55.5l-8.9-36.3l-14.1,10.4l11.1-38.3L250.3,0H214
		v12.2l11.2,40.6l-16.9,57.7l2.1-25.9l-11.1-19.8L168.5,0z M374,0h36.8l-13.1,33.8L374,0z M422.4,0h27.6l-21.8,40.5L422.4,0z M463,0
		h100.7l-11.9,39.6l-14.1,34l-23.7-60l-1.9,24.1l12,46.8l-22,46l-10.4-46.6l6.6-12.6L473.3,47L463,0z M586.8,0h49.5l8.2,38.8
		l0.1,81.6L666.7,38l14.8,49l16.2-87h-61.4l-13.3,28.4l-3-11.9l-13-7.4l4.7,21.2l-10.9,39.4L590.4,5.5L586.8,0z M718.9,0h12.5
		l-3.2,16.7L718.9,0z M14,142.9L14,142.9L0,176.5V86.8L14,142.9z M1083.8,0l15.4,47.9L1113.1,0H1083.8z M1223.2,0l2,18.1l10.3,13.8
		l0.3-23.1l2-8.8H1223.2z M1243.8,0l3.5,23.4l7.5,28.6l8.9,51l-0.2-52l10.6-26.4l3.4-24.8H1243.8z M1290.7,0l8.5,20.7l5.2,49.8
		l3-40.8l18.6,33.9l10.3,34.2l12.9-61.6l-10-36.3H1290.7z M1350.4,0l5.9,12.2l9.6-12.2H1350.4z M1385.9,0l14.1,49.7V0H1385.9z"/>
</g>
<g>
	<path fill-rule="evenodd" clip-rule="evenodd" fill="#FFFFFF" d="M328.3,934.9l64.8,23.8l14.8,21.3H0V517.1l12.7-2.9L29,536.5
		l20.7,3l1.5,17.8l28.1,40l-1.5,40l25.2,45.9l19.3,45.9l38.5,19.3l19.3,32.6l19.2,7.4l4.4,4.4l10.4,25.2l3,5.9l17.8,11.8
		c5.6,5.6,9.6,7.5,8.9,16.3l13.3,23.7l3,4.4l5.9,8.9c2.9,6.9,3.9,3.9,4.4,7.4L328.3,934.9z M835.1,980l18.7-19.8l66.7-7.7l51.9-13.5
		l25.2-32.6l22.2-1.5l69.6,31.1l41.5,34.6l7.8,9.4H835.1z M1178.4,980l4.3-6.5l25.2-9.1l25.2-16.4l35.6-69.7l1.5-134.8l16.3-34.1
		l1.5-32.6l13.3-23.7l7.4-68.2l19.3-16.3l25.1-43v-56.3l13.4-35.5l3-85.9l17.8-56.3c2.6-6.8,6.9-12.9,10.4-19.2l2.4-5.9V980H1178.4z
		"/>
	<path fill-rule="evenodd" clip-rule="evenodd" fill="#15446E" d="M354.3,980H162v-28.1c-2-4.9,0.7-1.7-2.1-5.9l-11.7-14.8
		c-2.1-3.7-2.4-4.1-3.7-8.2l-3-20l-0.7-3.7l-28.7-45.2l23.9,47.4v20.7l14.6,27.2l-1.1,30.5H0V524.5l8.2-2.1L35.6,549l5.2,7.4
		l3.9,10.4l20.2,20v16.3l-6.9,17l12.1,17.8L57,643.1l16.4,8.2l7.4,20.7l25.2,21.5c0,1.5,0,3,0,4.4l5.2,24.5l-20-1.5l-35.6-21.4
		l18.5,22.2l31.1,11.8l2.2,2.6l22.2,7h2.2l24,14.9c0,1.5,0,2.9,0,4.4l2.8,11.1l17.7,16.3l14.7,17.8L200,843v3.7l4,40.7v3l2.1,37
		l5.1-82.2l11.8-0.7l8.1,27.4l25.2,25.9l4.4,67.4l5.2-42.9l17.8,14.8l15.6,3c0.8,2,3.9,7.8,5.9,8.9l10.4,5.2c3.5,1.2,3,0.7,6.7,0.7
		l25.2,13.8L354.3,980z M158.9,980H154l5.3-16L158.9,980z M1400,980h-185.1l6.7-16.5l17.8-14.3l5.2,11l14-39.3l15.5-25.2v-3
		l1.6-23.7l11.9-36.3l12.6-1.5l-6.5-112.6l16.5-21.5v-25.9l9.5-43.7l9.6-8.1l2.6-27.4l6.3,57v37.1l-11.5,28.9l-5,60.7l11.9-60.7
		l20.1-51.1l5.2-35.5l-7.1-34.1l8.5-33.3v-27.4l9.3-14.1l1.7-48.9l11.2-61.5l8.2-99.2l6.8-28.1l2.8-0.1V980z M852.5,980l6.9-11.3
		l74.1-1l-5.2-9.8l39.3-10.5l31.8,5.2l3.7-40.8l16.3-1.5l11.8,9.6l55.6,19.3l-3.7,6.6l21.5,15.3l9.7,18.7H852.5z"/>
	<path fill-rule="evenodd" clip-rule="evenodd" fill="#00101F" d="M297.2,980h-32.5l1.2-27L297.2,980z M1026,980l15.1-13.8l16.3-4
		l-8.2-27.5l45.2,23.4l16.2,21.9H1026z M1246.5,980l2-12.3l15.6,2.7l15.5-37.2l-1.5-33.4l16.3,7.3l0.8-57l11.1-16.3l1.5-42.2
		l7.4-31.1l-16.3-28.9l24.5-42.2l9.6-28.9l-0.7,28.1l-9.6,23.7l-3,71.1l16.3-63l20.7-20l24.5-54.8l-2.2-23.7l-14.1-14.1l1.5-24.4
		l11.8-12.6l-11.1-8.2l14.1-31.1l-6.7-11.1l6.7-20l3,8.9l5.2-22.2l-5.2-34.8l0.7-29.6l8.2-23.7l5.2-57l1.8-1.2v639H1246.5z
		 M255.6,980h-87.5l-4.4-35.6l-14.1-20.2l-9.6-32.7l-38.5-63l-13.3-31.9l-19.2-16.3l8.2,18.5L71.9,835l0.7,30.4l-14.8,36.3L85.2,852
		l5.2-22.2l17,32.6l-8.9,34.8l-11.1,9.6l-1.5,3l-4.4,20.7l20.8,6.7l12.6-12.6l20.8,21.3l3,34.1H0V569.9l20-2.2l25.9,32.6L40,619.5
		l11.8,22.2l-8.2,5.2l24.5,37.8l6.6,22.2l-30.3-20L20,669.1l-5.9-20.7l2.2,30.4l17.8,11.1l9.6,19.2L63,723.9l8.2,28.9l31.1,28.2
		l40,32.6l0.7,28.1l11.8,28.2l0.8,2.9l13.3,40.7L190,869l16,70.4v23.7l4.8-52.6l3.9-37.1l17.1,30.4l6.7,40.7l11.1,17.6L255.6,980z"
		/>
</g>
</svg>
